<?xml version="1.0" encoding="UTF-8" standalone="no"?>
<!-- Created with Inkscape (http://www.inkscape.org/) -->

<svg
   xmlns:dc="http://purl.org/dc/elements/1.1/"
   xmlns:cc="http://creativecommons.org/ns#"
   xmlns:rdf="http://www.w3.org/1999/02/22-rdf-syntax-ns#"
   xmlns:svg="http://www.w3.org/2000/svg"
   xmlns="http://www.w3.org/2000/svg"
   xmlns:sodipodi="http://sodipodi.sourceforge.net/DTD/sodipodi-0.dtd"
   xmlns:inkscape="http://www.inkscape.org/namespaces/inkscape"
   version="1.1"
   id="svg2"
   xml:space="preserve"
   width="356.62628"
   height="283.23935"
   viewBox="0 0 356.62628 283.23935"
   sodipodi:docname="eliasmith_et_al_2003_orientation_tuning.svg"
   inkscape:version="0.92.4 (unknown)"><metadata
     id="metadata8"><rdf:RDF><cc:Work
         rdf:about=""><dc:format>image/svg+xml</dc:format><dc:type
           rdf:resource="http://purl.org/dc/dcmitype/StillImage" /><dc:title></dc:title></cc:Work></rdf:RDF></metadata><defs
     id="defs6" /><sodipodi:namedview
     pagecolor="#ffffff"
     bordercolor="#666666"
     borderopacity="1"
     objecttolerance="10"
     gridtolerance="10"
     guidetolerance="10"
     inkscape:pageopacity="0"
     inkscape:pageshadow="2"
     inkscape:window-width="3840"
     inkscape:window-height="2085"
     id="namedview4"
     showgrid="false"
     fit-margin-top="0"
     fit-margin-left="0"
     fit-margin-right="0"
     fit-margin-bottom="0"
     inkscape:zoom="1.9302573"
     inkscape:cx="231.19558"
     inkscape:cy="117.46252"
     inkscape:window-x="0"
     inkscape:window-y="38"
     inkscape:window-maximized="1"
     inkscape:current-layer="g10" /><g
     id="g10"
     inkscape:groupmode="layer"
     inkscape:label="2004 - Neural Engineering - Eliasmith, Anderson"
     transform="matrix(1.3333333,0,0,-1.3333333,-228.4279,901.96245)"><g
       id="g1210"><path
         inkscape:connector-curvature="0"
         id="path16"
         style="fill:none;stroke:#fefefe;stroke-width:0.26100001;stroke-linecap:butt;stroke-linejoin:round;stroke-miterlimit:10;stroke-dasharray:none;stroke-opacity:1"
         d="M 198.83301,489.16 V 673.01306 H 431.91403 V 489.16 H 198.83301" /><path
         inkscape:connector-curvature="0"
         id="path18"
         style="fill:none;stroke:#242223;stroke-width:0.26100001;stroke-linecap:butt;stroke-linejoin:round;stroke-miterlimit:10;stroke-dasharray:none;stroke-opacity:1"
         d="M 198.83301,673.01306 H 431.91403 M 198.83301,489.16 h 233.08102 m 0,0 V 673.01306 M 198.83301,489.16 v 183.85306 m 0,-183.85306 h 233.08102 m -233.08102,0 v 183.85306 m 0,-183.85306 v 2.35102 m 0,181.50204 v -2.35101 M 224.73201,489.16 v 2.35102 m 0,181.50204 v -2.35101" /><text
         id="text22"
         style="font-variant:normal;font-weight:normal;font-size:7.31230021px;font-family:Helvetica;-inkscape-font-specification:Helvetica;writing-mode:lr-tb;fill:#242223;fill-opacity:1;fill-rule:nonzero;stroke:none"
         transform="matrix(1,0,0,-1,194.9164,480.89059)"><tspan
           id="tspan20"
           sodipodi:role="line"
           y="0"
           x="0 4.065639">80</tspan></text>
<path
         inkscape:connector-curvature="0"
         id="path24"
         style="fill:none;stroke:#242223;stroke-width:0.26100001;stroke-linecap:butt;stroke-linejoin:round;stroke-miterlimit:10;stroke-dasharray:none;stroke-opacity:1"
         d="m 250.62901,489.16 v 2.35102 m 0,181.50204 v -2.35101" /><text
         id="text28"
         style="font-variant:normal;font-weight:normal;font-size:7.31230021px;font-family:Helvetica;-inkscape-font-specification:Helvetica;writing-mode:lr-tb;fill:#242223;fill-opacity:1;fill-rule:nonzero;stroke:none"
         transform="matrix(1,0,0,-1,220.8138,480.89059)"><tspan
           id="tspan26"
           sodipodi:role="line"
           y="0"
           x="0 4.065639">60</tspan></text>
<path
         inkscape:connector-curvature="0"
         id="path30"
         style="fill:none;stroke:#242223;stroke-width:0.26100001;stroke-linecap:butt;stroke-linejoin:round;stroke-miterlimit:10;stroke-dasharray:none;stroke-opacity:1"
         d="m 276.52802,489.16 v 2.35102 m 0,181.50204 v -2.35101" /><text
         id="text34"
         style="font-variant:normal;font-weight:normal;font-size:7.31230021px;font-family:Helvetica;-inkscape-font-specification:Helvetica;writing-mode:lr-tb;fill:#242223;fill-opacity:1;fill-rule:nonzero;stroke:none"
         transform="matrix(1,0,0,-1,246.71219,480.89059)"><tspan
           id="tspan32"
           sodipodi:role="line"
           y="0"
           x="0 4.065639">40</tspan></text>
<path
         inkscape:connector-curvature="0"
         id="path36"
         style="fill:none;stroke:#242223;stroke-width:0.26100001;stroke-linecap:butt;stroke-linejoin:round;stroke-miterlimit:10;stroke-dasharray:none;stroke-opacity:1"
         d="m 302.42502,489.16 v 2.35102 m 0,181.50204 v -2.35101" /><text
         id="text40"
         style="font-variant:normal;font-weight:normal;font-size:7.31230021px;font-family:Helvetica;-inkscape-font-specification:Helvetica;writing-mode:lr-tb;fill:#242223;fill-opacity:1;fill-rule:nonzero;stroke:none"
         transform="matrix(1,0,0,-1,272.60959,480.89059)"><tspan
           id="tspan38"
           sodipodi:role="line"
           y="0"
           x="0 4.065639">20</tspan></text>
<path
         inkscape:connector-curvature="0"
         id="path42"
         style="fill:none;stroke:#242223;stroke-width:0.26100001;stroke-linecap:butt;stroke-linejoin:round;stroke-miterlimit:10;stroke-dasharray:none;stroke-opacity:1"
         d="m 328.32202,489.16 v 2.35102 m 0,181.50204 v -2.35101" /><text
         id="text46"
         style="font-variant:normal;font-weight:normal;font-size:7.31230021px;font-family:Helvetica;-inkscape-font-specification:Helvetica;writing-mode:lr-tb;fill:#242223;fill-opacity:1;fill-rule:nonzero;stroke:none"
         transform="matrix(1,0,0,-1,301.11902,480.89059)"><tspan
           id="tspan44"
           y="0"
           x="0">0</tspan></text>
<path
         inkscape:connector-curvature="0"
         id="path48"
         style="fill:none;stroke:#242223;stroke-width:0.26100001;stroke-linecap:butt;stroke-linejoin:round;stroke-miterlimit:10;stroke-dasharray:none;stroke-opacity:1"
         d="m 354.22101,489.16 v 2.35102 m 0,181.50204 v -2.35101" /><text
         id="text52"
         style="font-variant:normal;font-weight:normal;font-size:7.31230021px;font-family:Helvetica;-inkscape-font-specification:Helvetica;writing-mode:lr-tb;fill:#242223;fill-opacity:1;fill-rule:nonzero;stroke:none"
         transform="matrix(1,0,0,-1,324.66638,480.89059)"><tspan
           id="tspan50"
           sodipodi:role="line"
           y="0"
           x="0 4.065639">20</tspan></text>
<path
         inkscape:connector-curvature="0"
         id="path54"
         style="fill:none;stroke:#242223;stroke-width:0.26100001;stroke-linecap:butt;stroke-linejoin:round;stroke-miterlimit:10;stroke-dasharray:none;stroke-opacity:1"
         d="m 380.11801,489.16 v 2.35102 m 0,181.50204 v -2.35101" /><text
         id="text58"
         style="font-variant:normal;font-weight:normal;font-size:7.31230021px;font-family:Helvetica;-inkscape-font-specification:Helvetica;writing-mode:lr-tb;fill:#242223;fill-opacity:1;fill-rule:nonzero;stroke:none"
         transform="matrix(1,0,0,-1,350.56378,480.89059)"><tspan
           id="tspan56"
           sodipodi:role="line"
           y="0"
           x="0 4.065639">40</tspan></text>
<path
         inkscape:connector-curvature="0"
         id="path60"
         style="fill:none;stroke:#242223;stroke-width:0.26100001;stroke-linecap:butt;stroke-linejoin:round;stroke-miterlimit:10;stroke-dasharray:none;stroke-opacity:1"
         d="m 406.01501,489.16 v 2.35102 m 0,181.50204 v -2.35101" /><text
         id="text64"
         style="font-variant:normal;font-weight:normal;font-size:7.31230021px;font-family:Helvetica;-inkscape-font-specification:Helvetica;writing-mode:lr-tb;fill:#242223;fill-opacity:1;fill-rule:nonzero;stroke:none"
         transform="matrix(1,0,0,-1,376.46219,480.89059)"><tspan
           id="tspan62"
           sodipodi:role="line"
           y="0"
           x="0 4.065639">60</tspan></text>
<path
         inkscape:connector-curvature="0"
         id="path66"
         style="fill:none;stroke:#242223;stroke-width:0.26100001;stroke-linecap:butt;stroke-linejoin:round;stroke-miterlimit:10;stroke-dasharray:none;stroke-opacity:1"
         d="m 431.91403,489.16 v 2.35102 m 0,181.50204 v -2.35101" /><text
         id="text70"
         style="font-variant:normal;font-weight:normal;font-size:7.31230021px;font-family:Helvetica;-inkscape-font-specification:Helvetica;writing-mode:lr-tb;fill:#242223;fill-opacity:1;fill-rule:nonzero;stroke:none"
         transform="matrix(1,0,0,-1,402.35959,480.89059)"><tspan
           id="tspan68"
           sodipodi:role="line"
           y="0"
           x="0 4.065639">80</tspan></text>
<path
         inkscape:connector-curvature="0"
         id="path72"
         style="fill:none;stroke:#242223;stroke-width:0.26100001;stroke-linecap:butt;stroke-linejoin:round;stroke-miterlimit:10;stroke-dasharray:none;stroke-opacity:1"
         d="m 198.83301,489.16 h 2.351 m 230.73002,0 h -2.35101" /><text
         id="text76"
         style="font-variant:normal;font-weight:normal;font-size:7.31230021px;font-family:Helvetica;-inkscape-font-specification:Helvetica;writing-mode:lr-tb;fill:#242223;fill-opacity:1;fill-rule:nonzero;stroke:none"
         transform="matrix(1,0,0,-1,426.95203,480.89059)"><tspan
           id="tspan74"
           sodipodi:role="line"
           y="0"
           x="0 4.065639 8.131278">100</tspan></text>
<path
         inkscape:connector-curvature="0"
         id="path78"
         style="fill:none;stroke:#242223;stroke-width:0.26100001;stroke-linecap:butt;stroke-linejoin:round;stroke-miterlimit:10;stroke-dasharray:none;stroke-opacity:1"
         d="m 198.83301,515.40704 h 2.351 m 230.73002,0 h -2.35101" /><text
         id="text82"
         style="font-variant:normal;font-weight:normal;font-size:7.31230021px;font-family:Helvetica;-inkscape-font-specification:Helvetica;writing-mode:lr-tb;fill:#242223;fill-opacity:1;fill-rule:nonzero;stroke:none"
         transform="matrix(1,0,0,-1,189.4756,487.33249)"><tspan
           id="tspan80"
           y="0"
           x="0">0</tspan></text>
<path
         inkscape:connector-curvature="0"
         id="path84"
         style="fill:none;stroke:#242223;stroke-width:0.26100001;stroke-linecap:butt;stroke-linejoin:round;stroke-miterlimit:10;stroke-dasharray:none;stroke-opacity:1"
         d="m 198.83301,541.69604 h 2.351 m 230.73002,0 h -2.35101" /><text
         id="text88"
         style="font-variant:normal;font-weight:normal;font-size:7.31230021px;font-family:Helvetica;-inkscape-font-specification:Helvetica;writing-mode:lr-tb;fill:#242223;fill-opacity:1;fill-rule:nonzero;stroke:none"
         transform="matrix(1,0,0,-1,186.8636,513.5788)"><tspan
           id="tspan86"
           sodipodi:role="line"
           y="0"
           x="0 4.065639">50</tspan></text>
<path
         inkscape:connector-curvature="0"
         id="path90"
         style="fill:none;stroke:#242223;stroke-width:0.26100001;stroke-linecap:butt;stroke-linejoin:round;stroke-miterlimit:10;stroke-dasharray:none;stroke-opacity:1"
         d="m 198.83301,567.94305 h 2.351 m 230.73002,0 h -2.35101" /><text
         id="text94"
         style="font-variant:normal;font-weight:normal;font-size:7.31230021px;font-family:Helvetica;-inkscape-font-specification:Helvetica;writing-mode:lr-tb;fill:#242223;fill-opacity:1;fill-rule:nonzero;stroke:none"
         transform="matrix(1,0,0,-1,184.2527,539.86816)"><tspan
           id="tspan92"
           sodipodi:role="line"
           y="0"
           x="0 4.065639 8.131278">100</tspan></text>
<path
         inkscape:connector-curvature="0"
         id="path96"
         style="fill:none;stroke:#242223;stroke-width:0.26100001;stroke-linecap:butt;stroke-linejoin:round;stroke-miterlimit:10;stroke-dasharray:none;stroke-opacity:1"
         d="m 198.83301,594.23206 h 2.351 m 230.73002,0 h -2.35101" /><text
         id="text100"
         style="font-variant:normal;font-weight:normal;font-size:7.31230021px;font-family:Helvetica;-inkscape-font-specification:Helvetica;writing-mode:lr-tb;fill:#242223;fill-opacity:1;fill-rule:nonzero;stroke:none"
         transform="matrix(1,0,0,-1,184.2527,566.11456)"><tspan
           id="tspan98"
           sodipodi:role="line"
           y="0"
           x="0 4.065639 8.131278">150</tspan></text>
<path
         inkscape:connector-curvature="0"
         id="path102"
         style="fill:none;stroke:#242223;stroke-width:0.26100001;stroke-linecap:butt;stroke-linejoin:round;stroke-miterlimit:10;stroke-dasharray:none;stroke-opacity:1"
         d="m 198.83301,620.47705 h 2.351 m 230.73002,0 h -2.35101" /><text
         id="text106"
         style="font-variant:normal;font-weight:normal;font-size:7.31230021px;font-family:Helvetica;-inkscape-font-specification:Helvetica;writing-mode:lr-tb;fill:#242223;fill-opacity:1;fill-rule:nonzero;stroke:none"
         transform="matrix(1,0,0,-1,184.2527,592.40405)"><tspan
           id="tspan104"
           sodipodi:role="line"
           y="0"
           x="0 4.065639 8.131278">200</tspan></text>
<path
         inkscape:connector-curvature="0"
         id="path108"
         style="fill:none;stroke:#242223;stroke-width:0.26100001;stroke-linecap:butt;stroke-linejoin:round;stroke-miterlimit:10;stroke-dasharray:none;stroke-opacity:1"
         d="m 198.83301,646.76703 h 2.351 m 230.73002,0 h -2.35101" /><text
         id="text112"
         style="font-variant:normal;font-weight:normal;font-size:7.31230021px;font-family:Helvetica;-inkscape-font-specification:Helvetica;writing-mode:lr-tb;fill:#242223;fill-opacity:1;fill-rule:nonzero;stroke:none"
         transform="matrix(1,0,0,-1,184.2527,618.64941)"><tspan
           id="tspan110"
           sodipodi:role="line"
           y="0"
           x="0 4.065639 8.131278">250</tspan></text>
<path
         inkscape:connector-curvature="0"
         id="path114"
         style="fill:none;stroke:#242223;stroke-width:0.26100001;stroke-linecap:butt;stroke-linejoin:round;stroke-miterlimit:10;stroke-dasharray:none;stroke-opacity:1"
         d="m 198.83301,673.01306 h 2.351 m 230.73002,0 h -2.35101" /><text
         id="text118"
         style="font-variant:normal;font-weight:normal;font-size:7.31230021px;font-family:Helvetica;-inkscape-font-specification:Helvetica;writing-mode:lr-tb;fill:#242223;fill-opacity:1;fill-rule:nonzero;stroke:none"
         transform="matrix(1,0,0,-1,184.2527,644.93866)"><tspan
           id="tspan116"
           sodipodi:role="line"
           y="0"
           x="0 4.065639 8.131278">300</tspan></text>
<path
         inkscape:connector-curvature="0"
         id="path120"
         style="fill:none;stroke:#242223;stroke-width:0.26100001;stroke-linecap:butt;stroke-linejoin:round;stroke-miterlimit:10;stroke-dasharray:none;stroke-opacity:1"
         d="M 198.83301,673.01306 H 431.91403 M 198.83301,489.16 h 233.08102 m 0,0 V 673.01306 M 198.83301,489.16 v 183.85306" /><text
         id="text124"
         style="font-variant:normal;font-weight:normal;font-size:7.31230021px;font-family:Helvetica;-inkscape-font-specification:Helvetica;writing-mode:lr-tb;fill:#242223;fill-opacity:1;fill-rule:nonzero;stroke:none"
         transform="matrix(1,0,0,-1,184.2527,671.18506)"><tspan
           id="tspan122"
           sodipodi:role="line"
           y="0"
           x="0 4.065639 8.131278">350</tspan></text>
<path
         inkscape:connector-curvature="0"
         id="path126"
         style="fill:none;stroke:#242223;stroke-width:1.04499996;stroke-linecap:butt;stroke-linejoin:miter;stroke-miterlimit:4;stroke-dasharray:none;stroke-opacity:1"
         d="M 215.67801,537.474 V 503.87201 M 213.632,537.474 h 4.04799 M 213.632,503.87201 h 4.04799 m 26.46402,69.336 V 522.763 m -2.002,50.44501 h 4.04798 M 242.14201,522.763 h 4.04798 m 27.76902,102.98102 v -46.22406 m -2.04501,46.22406 h 4.04801 M 271.914,579.51996 h 4.04801 m 26.46301,79.82507 v -35.69 m -2.04599,35.69 h 4.09198 m -4.09198,-35.69 h 4.09198 m 27.725,12.57898 v -63.026 m -2.00198,63.026 h 4.04797 m -4.04797,-63.026 h 4.04797 m 26.46402,6.31195 V 510.18402 M 358.66,579.51996 h 4.04703 M 358.66,510.18402 h 4.04703 m 27.76999,31.51202 v -31.51202 m -2.04501,31.51202 h 4.091 m -4.091,-31.51202 h 4.091 m 26.46301,37.823 V 512.27301 M 416.94,548.00702 h 4.04801 M 416.94,512.27301 h 4.04801 m -205.31,10.09802 28.466,27.29102 29.815,44.961 28.46601,50.44696 29.77099,-44.13495 28.51001,-58.80402 29.771,-19.36804 28.509,6.745 m -203.30801,-9.18299 1.567,2.04602 -1.567,2.04602 -1.567,-2.04602 z m 28.466,27.29102 1.567,2.04602 -1.567,2.04498 -1.567,-2.04498 z m 29.815,44.96197 1.56699,2.04505 -1.56699,2.04596 -1.56701,-2.04596 z m 28.46601,50.44605 1.56698,2.04596 -1.56698,2.04602 -1.56702,-2.04602 z m 29.77099,-44.13501 1.56702,2.04602 -1.56702,2.04596 -1.56698,-2.04596 z m 28.51001,-58.80402 1.56699,2.04602 -1.56699,2.04596 -1.56701,-2.04596 z m 29.771,-19.36798 1.56699,2.04596 -1.56699,2.04504 L 388.91,522.763 Z m 28.509,6.74701 1.56699,2.04395 -1.56699,2.04602 -1.56701,-2.04602 z" /><path
         inkscape:connector-curvature="0"
         id="path128"
         style="fill:none;stroke:#242223;stroke-width:1.04499996;stroke-linecap:butt;stroke-linejoin:miter;stroke-miterlimit:4;stroke-dasharray:2.089, 2.089;stroke-dashoffset:0;stroke-opacity:1"
         d="m 215.67801,526.67999 1.306,0.17401 1.26201,0.17304 1.306,0.26196 1.306,0.21704 1.306,0.305 1.26199,0.30596 2.61101,0.78205 1.306,0.435 1.263,0.479 1.306,0.56598 1.30499,0.60998 1.306,0.65302 1.263,0.73901 1.30501,0.82697 1.30499,0.87103 1.306,1.00098 1.26199,1.04498 1.30599,1.13104 1.30502,1.219 1.306,1.349 1.263,1.43701 1.30599,1.52295 1.305,1.61102 1.306,1.74103 1.26301,1.87097 1.305,1.95898 1.306,2.08905 1.306,2.17701 1.262,2.263 1.306,2.39398 1.305,2.48096 1.30597,2.61206 1.26303,2.65496 1.306,2.78498 1.305,2.82904 1.306,2.91601 1.263,2.95996 1.30499,3.00299 2.612,6.18104 1.26202,3.08996 2.612,6.26801 1.30499,3.09002 1.26301,3.09095 1.306,3.04705 1.30398,2.96003 1.306,2.91595 1.263,2.87201 1.30502,2.742 1.306,2.69904 2.56797,4.96197 1.30603,2.30597 1.306,2.17701 1.30499,2.00201 1.26297,1.87201 1.30603,1.74103 1.30499,1.52295 1.306,1.349 1.263,1.21905 1.30503,1.00098 1.306,0.78399 1.306,0.65302 1.26199,0.43494 1.306,0.21801 1.306,0.043 1.30499,-0.13104 1.263,-0.34796 1.306,-0.52203 1.30499,-0.74 1.306,-0.914 1.26203,-1.13195 1.306,-1.26203 1.30597,-1.47998 1.30603,-1.60998 1.26199,-1.78504 1.306,-1.95898 1.30597,-2.08899 1.30402,-2.263 1.263,-2.39405 1.306,-2.48095 1.30502,-2.612 1.306,-2.74201 1.26199,-2.78601 1.306,-2.91498 1.306,-2.96002 1.306,-3.00299 1.26199,-3.047 1.306,-3.091 2.611,-6.268 1.263,-3.09003 1.306,-3.13397 1.30502,-3.09003 1.306,-3.00305 1.26199,-3.00391 1.306,-2.95904 1.306,-2.87299 1.306,-2.78497 1.262,-2.698 1.306,-2.65601 1.306,-2.52404 1.30499,-2.43799 1.263,-2.34998 1.306,-2.22003 1.30502,-2.08899 1.306,-2.04596 1.26199,-1.87201 1.30597,-1.828 1.30603,-1.65399 1.306,-1.61005 1.26099,-1.43695 1.306,-1.39203 1.306,-1.263 1.30499,-1.21802 1.263,-1.08899 1.306,-1.00097 1.30503,-0.914 1.30597,-0.82703 1.26202,-0.784 1.306,-0.69598 1.306,-0.65302 1.30597,-0.565 1.26202,-0.52301 1.306,-0.479 1.306,-0.39099 1.30499,-0.39203 1.263,-0.34894 1.306,-0.30304 1.30503,-0.26196 1.306,-0.21704 1.26199,-0.21698 1.306,-0.17597 1.306,-0.17401 1.306,-0.12903 1.26199,-0.13196 1.306,-0.12902 1.306,-0.088 1.305,-0.086 1.263,-0.044 1.306,-0.087 1.306,-0.044 1.30502,-0.043 1.263,-0.0439 1.30499,-0.043 1.30499,-0.044 h 1.306 l 1.262,-0.043 h 2.612 l 1.306,-0.044 h 3.87402 l 1.30499,-0.043" /><path
         inkscape:connector-curvature="0"
         id="path130"
         style="fill:none;stroke:#242223;stroke-width:1.04499996;stroke-linecap:butt;stroke-linejoin:miter;stroke-miterlimit:4;stroke-dasharray:1.045, 1.045;stroke-dashoffset:0;stroke-opacity:1"
         d="m 215.67801,512.534 1.306,0.13104 1.26201,0.087 1.306,0.13001 1.306,0.13098 1.306,0.17401 1.26199,0.17401 1.306,0.21802 1.30501,0.21698 1.306,0.26202 1.263,0.26099 1.306,0.34802 1.30499,0.34796 1.306,0.39203 1.263,0.39099 1.30501,0.47901 1.30499,0.52295 1.306,0.56506 1.26199,0.60999 1.30599,0.65301 1.30502,0.73999 1.306,0.784 1.263,0.82599 1.30599,0.914 1.305,1.00201 1.306,1.04401 1.26301,1.13196 1.305,1.21899 1.306,1.26099 1.306,1.39306 1.262,1.43598 1.306,1.52399 1.305,1.56695 1.30597,1.69708 1.26303,1.74097 1.306,1.828 1.305,1.91602 1.306,1.95795 1.263,2.04602 1.30499,2.08905 1.306,2.17596 1.306,2.22003 1.26202,2.21997 2.612,4.61402 1.30499,2.34997 1.26301,2.30701 2.60998,4.70099 1.306,2.307 1.263,2.26301 1.30502,2.263 1.306,2.17602 1.306,2.133 1.26197,2.04602 1.30603,1.91498 1.306,1.872 1.30499,1.73999 1.26297,1.65497 1.30603,1.47901 1.30499,1.393 1.306,1.219 1.263,1.04504 1.30503,0.914 1.306,0.73999 1.306,0.56598 1.26199,0.39099 1.306,0.21802 1.306,0.043 1.30499,-0.12995 1.263,-0.30505 1.306,-0.52197 1.30499,-0.65302 1.306,-0.82696 1.26203,-1.00104 1.306,-1.13196 1.30597,-1.30603 1.30603,-1.43597 1.26199,-1.56702 1.306,-1.698 1.30597,-1.828 1.30402,-1.91498 1.263,-2.00201 1.306,-2.08905 1.30502,-2.13294 1.306,-2.22003 1.26199,-2.263 2.612,-4.61298 1.306,-2.35107 1.26199,-2.34997 1.306,-2.30695 1.306,-2.35004 1.305,-2.307 1.263,-2.263 1.306,-2.21998 1.30502,-2.177 1.306,-2.13202 1.26199,-2.04596 1.306,-2.00201 1.306,-1.95898 1.306,-1.87201 1.262,-1.784 1.306,-1.698 1.306,-1.65405 1.30499,-1.52399 1.263,-1.479 1.306,-1.39301 1.30502,-1.349 1.306,-1.21795 1.26199,-1.17505 1.30597,-1.08899 1.30603,-1.00098 1.306,-0.95801 1.26099,-0.86999 1.306,-0.82703 1.306,-0.73999 1.30499,-0.69604 1.263,-0.65296 2.61103,-1.13201 1.30597,-0.47895 1.26202,-0.435 2.612,-0.78302 1.30597,-0.30499 1.26202,-0.30499 2.612,-0.52203 1.30499,-0.21802 1.263,-0.17395 1.306,-0.17401 1.30503,-0.13007 1.306,-0.13092 1.26199,-0.13104 1.306,-0.13001 1.306,-0.087 1.306,-0.088 1.26199,-0.043 1.306,-0.087 1.306,-0.044 1.305,-0.043 1.263,-0.044 1.306,-0.043 h 1.306 l 1.30502,-0.043 h 1.263 l 1.30499,-0.044 h 1.30499 l 1.306,-0.044 h 5.18 l 1.26202,-0.043 h 3.91699" /><text
         id="text134"
         style="font-variant:normal;font-weight:normal;font-size:9.40159988px;font-family:Helvetica;-inkscape-font-specification:Helvetica;writing-mode:lr-tb;fill:#242223;fill-opacity:1;fill-rule:nonzero;stroke:none"
         transform="matrix(1,0,0,-1,267.12579,466.09189)"><tspan
           id="tspan132"
           sodipodi:role="line"
           y="0"
           x="0 5.2272897 8.3580227 10.445178 15.672467 20.899757 23.513401 28.740692 31.354336 33.44149 38.668781 43.896069 46.509716 49.64045 54.867737 60.095028 65.322319 68.453049 73.680336 78.907631 83.608429">orientation (degrees)</tspan></text>
<text
         id="text138"
         style="font-variant:normal;font-weight:normal;font-size:9.40159988px;font-family:Helvetica;-inkscape-font-specification:Helvetica;writing-mode:lr-tb;fill:#242223;fill-opacity:1;fill-rule:nonzero;stroke:none"
         transform="matrix(0,1,1,0,178.2029,530.5105)"><tspan
           id="tspan136"
           sodipodi:role="line"
           y="0"
           x="0 2.6136448 4.7007999 7.831533 9.9186878 15.145978 20.373268 22.986912 26.117645 31.344934 33.95858 39.185867 41.799515 44.930248 49.631046 54.858337 56.945492 61.64629 66.873581 71.574379 74.188026 78.888824">firing rate (spikes/s)</tspan></text>
<path
         inkscape:connector-curvature="0"
         id="path140"
         style="fill:#fefefe;fill-opacity:1;fill-rule:nonzero;stroke:none"
         d="m 348.87302,670.59204 h 80.61101 v -26.55 h -80.61101 z" /><path
         inkscape:connector-curvature="0"
         id="path142"
         style="fill:none;stroke:#fefefe;stroke-width:0.26100001;stroke-linecap:butt;stroke-linejoin:round;stroke-miterlimit:4;stroke-dasharray:none;stroke-opacity:1"
         d="m 348.87302,644.04205 v 26.54999 h 80.61099 v -26.54999 h -80.61099" /><path
         inkscape:connector-curvature="0"
         id="path144"
         style="fill:none;stroke:#242223;stroke-width:0.26100001;stroke-linecap:butt;stroke-linejoin:round;stroke-miterlimit:4;stroke-dasharray:none;stroke-opacity:1"
         d="m 348.87302,670.59204 h 80.61099 m -80.61099,-26.54999 h 80.61099 m 0,0 v 26.54999 m -80.61099,-26.54999 v 26.54999 m 0,-26.54999 h 80.61099 m -80.61099,0 v 26.54999 m 0,0 h 80.61099 m -80.61099,-26.54999 h 80.61099 m 0,0 v 26.54999 m -80.61099,-26.54999 v 26.54999" /><text
         id="text152"
         style="font-variant:normal;font-weight:normal;font-size:7.31230021px;font-family:Helvetica;-inkscape-font-specification:Helvetica;writing-mode:lr-tb;fill:#242223;fill-opacity:1;fill-rule:nonzero;stroke:none"
         transform="matrix(1,0,0,-1,369.2424,663.10529)"><tspan
           id="tspan146"
           sodipodi:role="line"
           y="0"
           x="0 4.8773041 8.9429426 10.975762 15.041401 19.10704 21.13986">V1 data</tspan><tspan
           id="tspan148"
           sodipodi:role="line"
           y="8.4011011"
           x="0 4.065639 8.131278 11.787428 13.820247 15.853066 19.918705 21.951525 26.41934 28.45216 30.48498 32.108311">best LIF fit</tspan><tspan
           id="tspan150"
           sodipodi:role="line"
           y="16.800739"
           x="0 4.065639 8.131278 11.787428 15.853066 19.918705 21.542036 25.607676 29.673313 31.706133 33.738953 37.804592 41.870232 45.526379 47.5592 49.182529 53.248169">encoding function</tspan></text>
<path
         inkscape:connector-curvature="0"
         id="path154"
         style="fill:none;stroke:#242223;stroke-width:1.04499996;stroke-linecap:butt;stroke-linejoin:round;stroke-miterlimit:4;stroke-dasharray:none;stroke-opacity:1"
         d="m 352.92102,665.63 h 12.23001" /><path
         inkscape:connector-curvature="0"
         id="path156"
         style="fill:none;stroke:#242223;stroke-width:1.04499996;stroke-linecap:butt;stroke-linejoin:round;stroke-miterlimit:4;stroke-dasharray:2.089, 2.089;stroke-dashoffset:0;stroke-opacity:1"
         d="m 352.92102,657.229 h 12.23001" /><path
         inkscape:connector-curvature="0"
         id="path158"
         style="fill:none;stroke:#242223;stroke-width:1.04499996;stroke-linecap:butt;stroke-linejoin:miter;stroke-miterlimit:4;stroke-dasharray:1.045, 1.045;stroke-dashoffset:0;stroke-opacity:1"
         d="m 352.92102,648.78601 h 12.23001" /><path
         inkscape:connector-curvature="0"
         id="path160"
         style="fill:none;stroke:#242223;stroke-width:1.04499996;stroke-linecap:butt;stroke-linejoin:miter;stroke-miterlimit:4;stroke-dasharray:none;stroke-opacity:1"
         d="m 358.84402,663.61902 1.56699,2.04602 -1.56699,2.04492 -1.56701,-2.04492 z" /></g><text
       transform="translate(198.29739,428.2399)"
       style="font-variant:normal;font-weight:normal;font-size:0px;font-family:Arial;-inkscape-font-specification:Arial;writing-mode:lr-tb;fill:#242223;fill-opacity:1;fill-rule:nonzero;stroke:none"
       id="text174"><tspan
         x="0"
         y="0"
         id="tspan172"></tspan></text>
<text
       transform="translate(183.77769,419.24008)"
       style="font-variant:normal;font-weight:normal;font-size:0px;font-family:Arial;-inkscape-font-specification:Arial;writing-mode:lr-tb;fill:#242223;fill-opacity:1;fill-rule:nonzero;stroke:none"
       id="text184"><tspan
         x="0"
         y="0"
         id="tspan182"></tspan></text>
<text
       transform="translate(189.17793,418.04006)"
       style="font-variant:normal;font-weight:normal;font-size:0px;font-family:Arial;-inkscape-font-specification:Arial;writing-mode:lr-tb;fill:#242223;fill-opacity:1;fill-rule:nonzero;stroke:none"
       id="text188"><tspan
         x="0"
         y="0"
         id="tspan186"></tspan></text>
<text
       transform="translate(226.6167,419.24008)"
       style="font-variant:normal;font-weight:normal;font-size:0px;font-family:Arial;-inkscape-font-specification:Arial;writing-mode:lr-tb;fill:#242223;fill-opacity:1;fill-rule:nonzero;stroke:none"
       id="text196"><tspan
         x="0"
         y="0"
         id="tspan194"></tspan></text>
<text
       transform="translate(232.01694,422.1202)"
       style="font-variant:normal;font-weight:normal;font-size:0px;font-family:Arial;-inkscape-font-specification:Arial;writing-mode:lr-tb;fill:#242223;fill-opacity:1;fill-rule:nonzero;stroke:none"
       id="text202"><tspan
         x="0 3.24 5.8800001 9.96"
         y="0"
         sodipodi:role="line"
         id="tspan198"></tspan><tspan
         x="-0.72004801"
         y="-5.4002028"
         id="tspan200"></tspan></text>
<text
       transform="translate(125.81911,381.32101)"
       style="font-variant:normal;font-weight:normal;font-size:0px;font-family:Arial;-inkscape-font-specification:Arial;writing-mode:lr-tb;fill:#242223;fill-opacity:1;fill-rule:nonzero;stroke:none"
       id="text210"><tspan
         x="0"
         y="0"
         id="tspan208"></tspan></text>
<text
       transform="translate(343.49689,368.3613)"
       style="font-variant:normal;font-weight:normal;font-size:0px;font-family:Arial;-inkscape-font-specification:Arial;writing-mode:lr-tb;fill:#242223;fill-opacity:1;fill-rule:nonzero;stroke:none"
       id="text220"><tspan
         x="0"
         y="0"
         id="tspan218"></tspan></text>
<text
       transform="translate(206.3382,329.48218)"
       style="font-variant:normal;font-weight:normal;font-size:0px;font-family:Arial;-inkscape-font-specification:Arial;writing-mode:lr-tb;fill:#242223;fill-opacity:1;fill-rule:nonzero;stroke:none"
       id="text234"><tspan
         x="0"
         y="0"
         id="tspan232"></tspan></text>
<text
       transform="translate(270.05768,329.48218)"
       style="font-variant:normal;font-weight:normal;font-size:0px;font-family:Arial;-inkscape-font-specification:Arial;writing-mode:lr-tb;fill:#242223;fill-opacity:1;fill-rule:nonzero;stroke:none"
       id="text242"><tspan
         x="0"
         y="0"
         id="tspan240"></tspan></text>
<text
       transform="translate(188.81859,277.7634)"
       style="font-variant:normal;font-weight:normal;font-size:0px;font-family:Arial;-inkscape-font-specification:Arial;writing-mode:lr-tb;fill:#242223;fill-opacity:1;fill-rule:nonzero;stroke:none"
       id="text258"><tspan
         x="0"
         y="0"
         id="tspan256"></tspan></text>
<text
       transform="translate(194.45783,277.7634)"
       style="font-variant:normal;font-weight:normal;font-size:0px;font-family:Arial;-inkscape-font-specification:Arial;writing-mode:lr-tb;fill:#242223;fill-opacity:1;fill-rule:nonzero;stroke:none"
       id="text262"><tspan
         x="0"
         y="0"
         id="tspan260"></tspan></text>
<text
       transform="translate(198.29801,277.7634)"
       style="font-variant:normal;font-weight:normal;font-size:0px;font-family:Arial;-inkscape-font-specification:Arial;writing-mode:lr-tb;fill:#242223;fill-opacity:1;fill-rule:nonzero;stroke:none"
       id="text266"><tspan
         x="0"
         y="0"
         id="tspan264"></tspan></text>
<text
       transform="translate(203.81823,277.7634)"
       style="font-variant:normal;font-weight:normal;font-size:0px;font-family:Arial;-inkscape-font-specification:Arial;writing-mode:lr-tb;fill:#242223;fill-opacity:1;fill-rule:nonzero;stroke:none"
       id="text270"><tspan
         x="0"
         y="0"
         id="tspan268"></tspan></text>
<text
       transform="translate(208.25841,277.7634)"
       style="font-variant:normal;font-weight:normal;font-size:0px;font-family:Arial;-inkscape-font-specification:Arial;writing-mode:lr-tb;fill:#242223;fill-opacity:1;fill-rule:nonzero;stroke:none"
       id="text274"><tspan
         x="0"
         y="0"
         id="tspan272"></tspan></text>
<text
       transform="translate(216.89876,277.7634)"
       style="font-variant:normal;font-weight:normal;font-size:0px;font-family:Arial;-inkscape-font-specification:Arial;writing-mode:lr-tb;fill:#242223;fill-opacity:1;fill-rule:nonzero;stroke:none"
       id="text278"><tspan
         x="0"
         y="0"
         id="tspan276"></tspan></text>
<text
       transform="translate(389.69621,187.04559)"
       style="font-variant:normal;font-weight:normal;font-size:0px;font-family:Arial;-inkscape-font-specification:Arial;writing-mode:lr-tb;fill:#242223;fill-opacity:1;fill-rule:nonzero;stroke:none"
       id="text304"><tspan
         x="0"
         y="0"
         id="tspan302"></tspan></text>
<text
       transform="translate(393.53636,187.04559)"
       style="font-variant:normal;font-weight:normal;font-size:0px;font-family:Arial;-inkscape-font-specification:Arial;writing-mode:lr-tb;fill:#242223;fill-opacity:1;fill-rule:nonzero;stroke:none"
       id="text308"><tspan
         x="0"
         y="0"
         id="tspan306"></tspan></text>
<text
       transform="translate(399.05562,187.04559)"
       style="font-variant:normal;font-weight:normal;font-size:0px;font-family:Arial;-inkscape-font-specification:Arial;writing-mode:lr-tb;fill:#242223;fill-opacity:1;fill-rule:nonzero;stroke:none"
       id="text312"><tspan
         x="0"
         y="0"
         id="tspan310"></tspan></text>
</g></svg>