<?xml version="1.0" encoding="UTF-8" standalone="no"?>
<svg
   xmlns:dc="http://purl.org/dc/elements/1.1/"
   xmlns:cc="http://creativecommons.org/ns#"
   xmlns:rdf="http://www.w3.org/1999/02/22-rdf-syntax-ns#"
   xmlns:svg="http://www.w3.org/2000/svg"
   xmlns="http://www.w3.org/2000/svg"
   xmlns:sodipodi="http://sodipodi.sourceforge.net/DTD/sodipodi-0.dtd"
   xmlns:inkscape="http://www.inkscape.org/namespaces/inkscape"
   inkscape:export-ydpi="304.79999"
   inkscape:export-xdpi="304.79999"
   inkscape:export-filename="/home/andreas/Uni/PhD/ta/syde556-w20/lectures/assets/syde556_lecture_stdby.png"
   version="1.1"
   id="svg2"
   xml:space="preserve"
   width="604.71997"
   height="340.16"
   viewBox="0 0 604.71997 340.16"
   sodipodi:docname="syde556_lecture_stdby.svg"
   inkscape:version="1.0beta2 (unknown)"><metadata
     id="metadata8"><rdf:RDF><cc:Work
         rdf:about=""><dc:format>image/svg+xml</dc:format><dc:type
           rdf:resource="http://purl.org/dc/dcmitype/StillImage" /><dc:title></dc:title></cc:Work></rdf:RDF></metadata><defs
     id="defs6"><clipPath
       clipPathUnits="userSpaceOnUse"
       id="clipPath60"><path
         d="M 0,0 H 572.83594 V 137.32813 H 0 Z"
         id="path58"
         inkscape:connector-curvature="0" /></clipPath></defs><sodipodi:namedview
     showguides="true"
     pagecolor="#ffffff"
     bordercolor="#666666"
     inkscape:document-rotation="0"
     borderopacity="1"
     objecttolerance="10"
     gridtolerance="10"
     guidetolerance="10"
     inkscape:pageopacity="0"
     inkscape:pageshadow="2"
     inkscape:window-width="3840"
     inkscape:window-height="2085"
     id="namedview4"
     showgrid="false"
     inkscape:zoom="2.6107401"
     inkscape:cx="316.1111"
     inkscape:cy="112.29828"
     inkscape:window-x="0"
     inkscape:window-y="38"
     inkscape:window-maximized="1"
     inkscape:current-layer="g12" /><g
     id="g10"
     inkscape:groupmode="layer"
     inkscape:label="syde556_lecture_stdby"
     transform="matrix(1.3333333,0,0,-1.3333333,0,340.16)"><g
       id="g12"
       transform="translate(72,183.118)"><g
         id="g14"><path
           d="M -72,-183.118 H 381.543 V 72 H -72 Z"
           style="fill:#ffffff;fill-opacity:1;fill-rule:nonzero;stroke:none"
           id="path16"
           inkscape:connector-curvature="0" /></g><g
         id="g18"><path
           d="M -72,70.007 H 381.543"
           style="fill:none;stroke:#000000;stroke-width:3.9851;stroke-linecap:butt;stroke-linejoin:miter;stroke-miterlimit:10;stroke-dasharray:none;stroke-opacity:1"
           id="path20"
           inkscape:connector-curvature="0" /></g><g
         id="g22"><path
           d="M -72,66.022 H 41.386"
           style="fill:none;stroke:#d1b2ee;stroke-width:3.9851;stroke-linecap:butt;stroke-linejoin:miter;stroke-miterlimit:10;stroke-dasharray:none;stroke-opacity:1"
           id="path24"
           inkscape:connector-curvature="0" /></g><g
         id="g26"><path
           d="M 41.386,66.022 H 154.772"
           style="fill:none;stroke:#bf33de;stroke-width:3.9851;stroke-linecap:butt;stroke-linejoin:miter;stroke-miterlimit:10;stroke-dasharray:none;stroke-opacity:1"
           id="path28"
           inkscape:connector-curvature="0" /></g><g
         id="g30"><path
           d="M 154.772,66.022 H 268.157"
           style="fill:none;stroke:#8001b3;stroke-width:3.9851;stroke-linecap:butt;stroke-linejoin:miter;stroke-miterlimit:10;stroke-dasharray:none;stroke-opacity:1"
           id="path32"
           inkscape:connector-curvature="0" /></g><g
         id="g34"><path
           d="M 268.157,66.022 H 381.543"
           style="fill:none;stroke:#56048a;stroke-width:3.9851;stroke-linecap:butt;stroke-linejoin:miter;stroke-miterlimit:10;stroke-dasharray:none;stroke-opacity:1"
           id="path36"
           inkscape:connector-curvature="0" /></g><text
         id="text44"
         style="font-variant:normal;font-weight:bold;font-size:10.9091px;font-family:LMSans10;-inkscape-font-specification:LMSans10-Bold;text-align:center;writing-mode:lr-tb;text-anchor:middle;fill:#000000;fill-opacity:1;fill-rule:nonzero;stroke:none"
         transform="scale(1,-1)"
         x="154.23544"
         y="-44.839924"><tspan
           id="tspan40"
           sodipodi:role="line"
           y="-44.839924"
           x="154.23544">SYDE 556/750</tspan><tspan
           id="tspan42"
           sodipodi:role="line"
           y="-30.699173"
           x="154.23544">Simulating Neurobiological Systems</tspan></text><text
         id="text48"
         style="font-variant:normal;font-weight:normal;font-size:10.9091px;font-family:LMSans10;-inkscape-font-specification:LMSans10-Regular;writing-mode:lr-tb;fill:#000000;fill-opacity:1;fill-rule:nonzero;stroke:none"
         transform="scale(1,-1)"
         x="118.42851"
         y="-12.806125"><tspan
           id="tspan46"
           sodipodi:role="line"
           y="-12.806125"
           x="118.42851 125.70161 131.33833 136.97507 140.70271 145.5518 150.79362 158.60782 164.66782 168.6071 174.3671 179.2162 184.25511 189.1042">AndreasStöckel</tspan></text><g
         transform="matrix(0.34639,0,0,0.34639,73.951676,-111.1469)"
         id="g50"><g
           transform="translate(-53.102,-157.025)"
           id="g52"><g
             id="g54"><g
               clip-path="url(#clipPath60)"
               id="g56"><g
                 transform="matrix(1,0,0,-1,0,137.32813)"
                 id="g62"><g
                   id="g64"><path
                     inkscape:connector-curvature="0"
                     id="path66"
                     style="fill:#211e1e;fill-opacity:1;fill-rule:nonzero;stroke:none"
                     d="m 84.695,78.168 h 7.871 l 6.903,22.586 7.492,-22.684 h 6.285 l 7.477,22.684 6.91,-22.586 h 7.676 l -11.395,33.598 h -6.375 l -7.527,-21.825 -7.539,21.825 H 96.09 L 84.695,78.168" /><path
                     inkscape:connector-curvature="0"
                     id="path68"
                     style="fill:#211e1e;fill-opacity:1;fill-rule:nonzero;stroke:none"
                     d="m 146.93,78.16 h 6.769 l 14.289,33.606 h -7.664 l -3.054,-7.493 h -14.102 l -3.051,7.493 h -7.488 z m 7.722,19.637 -4.425,-10.817 -4.43,10.817 z" /><path
                     inkscape:connector-curvature="0"
                     id="path70"
                     style="fill:#211e1e;fill-opacity:1;fill-rule:nonzero;stroke:none"
                     d="m 175.988,85.168 h -10.144 v -6.766 h 27.644 v 6.766 h -10.144 v 26.598 h -7.356 V 85.168" /><path
                     inkscape:connector-curvature="0"
                     id="path72"
                     style="fill:#211e1e;fill-opacity:1;fill-rule:nonzero;stroke:none"
                     d="m 199.07,78.402 h 25.16 v 6.524 h -17.871 v 6.769 h 15.731 v 6.539 h -15.731 v 7 h 18.11 v 6.532 H 199.07 V 78.402" /><path
                     inkscape:connector-curvature="0"
                     id="path74"
                     style="fill:#211e1e;fill-opacity:1;fill-rule:nonzero;stroke:none"
                     d="m 232.359,78.402 h 15.262 c 4.234,0 7.52,1.188 9.715,3.387 1.859,1.856 2.859,4.469 2.859,7.617 v 0.102 c 0,5.383 -2.902,8.769 -7.144,10.34 l 8.14,11.918 h -8.578 l -7.144,-10.676 h -5.766 v 10.676 h -7.344 z m 14.782,16.207 c 3.578,0 5.625,-1.906 5.625,-4.718 v -0.094 c 0,-3.152 -2.2,-4.77 -5.77,-4.77 h -7.293 v 9.582 h 7.438" /><path
                     inkscape:connector-curvature="0"
                     id="path76"
                     style="fill:#211e1e;fill-opacity:1;fill-rule:nonzero;stroke:none"
                     d="m 268.297,78.402 h 7.336 v 26.688 h 15.617 v 6.676 H 268.297 V 78.402" /><path
                     inkscape:connector-curvature="0"
                     id="path78"
                     style="fill:#211e1e;fill-opacity:1;fill-rule:nonzero;stroke:none"
                     d="m 292.379,95.18 v -0.102 c 0,-9.476 7.48,-17.25 17.785,-17.25 10.285,0 17.68,7.676 17.68,17.16 v 0.09 c 0,9.492 -7.489,17.258 -17.778,17.258 -10.293,0 -17.687,-7.676 -17.687,-17.156 m 27.781,0 v -0.102 c 0,-5.707 -4.187,-10.484 -10.094,-10.484 -5.91,0 -10.007,4.672 -10.007,10.394 v 0.09 c 0,5.719 4.191,10.492 10.105,10.492 5.902,0 9.996,-4.664 9.996,-10.39" /><path
                     inkscape:connector-curvature="0"
                     id="path80"
                     style="fill:#211e1e;fill-opacity:1;fill-rule:nonzero;stroke:none"
                     d="m 329.898,95.18 v -0.102 c 0,-9.476 7.481,-17.25 17.77,-17.25 10.301,0 17.687,7.676 17.687,17.16 v 0.09 c 0,9.492 -7.48,17.258 -17.777,17.258 -10.293,0 -17.68,-7.676 -17.68,-17.156 m 27.79,0 v -0.102 c 0,-5.707 -4.192,-10.484 -10.11,-10.484 -5.902,0 -10.004,4.672 -10.004,10.394 v 0.09 c 0,5.719 4.196,10.492 10.094,10.492 5.918,0 10.02,-4.664 10.02,-10.39" /><path
                     inkscape:connector-curvature="0"
                     id="path82"
                     style="fill:#211e1e;fill-opacity:1;fill-rule:nonzero;stroke:none"
                     d="m 103.316,61.52 v -8.782 h 3.387 v 8.7 c 0,2.496 1.25,3.792 3.317,3.792 2.058,0 3.312,-1.25 3.312,-3.687 v -8.805 h 3.383 v 8.672 c 0,4.656 -2.613,6.942 -6.742,6.942 -4.129,0 -6.657,-2.305 -6.657,-6.832" /><path
                     inkscape:connector-curvature="0"
                     id="path84"
                     style="fill:#211e1e;fill-opacity:1;fill-rule:nonzero;stroke:none"
                     d="m 125.707,52.738 h 3.117 l 7.203,9.465 v -9.465 h 3.34 v 15.371 h -2.879 l -7.445,-9.773 v 9.773 h -3.336 V 52.738" /><path
                     inkscape:connector-curvature="0"
                     id="path86"
                     style="fill:#211e1e;fill-opacity:1;fill-rule:nonzero;stroke:none"
                     d="m 148.98,52.738 h 3.383 v 15.371 h -3.383 z" /><path
                     inkscape:connector-curvature="0"
                     id="path88"
                     style="fill:#211e1e;fill-opacity:1;fill-rule:nonzero;stroke:none"
                     d="m 160.664,52.738 h 3.731 l 4.015,10.828 4.02,-10.828 h 3.648 l -6.215,15.481 h -2.988 l -6.211,-15.481" /><path
                     inkscape:connector-curvature="0"
                     id="path90"
                     style="fill:#211e1e;fill-opacity:1;fill-rule:nonzero;stroke:none"
                     d="m 184.219,52.738 h 11.597 v 3.008 h -8.234 v 3.121 h 7.242 v 3.008 h -7.242 v 3.227 h 8.344 v 3.007 H 184.219 V 52.738" /><path
                     inkscape:connector-curvature="0"
                     id="path92"
                     style="fill:#211e1e;fill-opacity:1;fill-rule:nonzero;stroke:none"
                     d="m 211.516,60.207 c 1.644,0 2.593,-0.883 2.593,-2.18 v -0.043 c 0,-1.445 -1.011,-2.195 -2.66,-2.195 h -3.359 v 4.418 z m -6.809,-7.469 h 7.027 c 1.957,0 3.473,0.547 4.481,1.559 0.855,0.855 1.316,2.062 1.316,3.515 v 0.043 c 0,2.481 -1.336,4.04 -3.293,4.766 l 3.758,5.488 h -3.953 l -3.297,-4.918 h -2.656 v 4.918 h -3.383 V 52.738" /><path
                     inkscape:connector-curvature="0"
                     id="path94"
                     style="fill:#211e1e;fill-opacity:1;fill-rule:nonzero;stroke:none"
                     d="m 225.305,65.867 1.996,-2.39 c 1.383,1.144 2.836,1.867 4.59,1.867 1.382,0 2.214,-0.547 2.214,-1.449 v -0.043 c 0,-0.86 -0.523,-1.297 -3.093,-1.957 -3.094,-0.79 -5.094,-1.649 -5.094,-4.7 v -0.043 c 0,-2.789 2.242,-4.636 5.379,-4.636 2.242,0 4.152,0.707 5.711,1.957 l -1.758,2.547 c -1.359,-0.942 -2.703,-1.516 -3.996,-1.516 -1.293,0 -1.977,0.594 -1.977,1.34 v 0.047 c 0,1.007 0.661,1.332 3.321,2.015 3.113,0.817 4.871,1.934 4.871,4.614 v 0.046 c 0,3.051 -2.332,4.762 -5.645,4.762 -2.324,0 -4.679,-0.812 -6.519,-2.461" /><path
                     inkscape:connector-curvature="0"
                     id="path96"
                     style="fill:#211e1e;fill-opacity:1;fill-rule:nonzero;stroke:none"
                     d="m 246.344,52.738 h 3.379 v 15.371 h -3.379 z" /><path
                     inkscape:connector-curvature="0"
                     id="path98"
                     style="fill:#211e1e;fill-opacity:1;fill-rule:nonzero;stroke:none"
                     d="m 262.914,55.855 h -4.676 v -3.117 h 12.739 v 3.117 h -4.68 v 12.254 h -3.383 V 55.855" /><path
                     inkscape:connector-curvature="0"
                     id="path100"
                     style="fill:#211e1e;fill-opacity:1;fill-rule:nonzero;stroke:none"
                     d="m 283.668,62.047 -5.906,-9.309 h 3.953 l 3.664,6.168 3.734,-6.168 h 3.84 l -5.906,9.246 v 6.125 h -3.379 v -6.062" /><path
                     inkscape:connector-curvature="0"
                     id="path102"
                     style="fill:#211e1e;fill-opacity:1;fill-rule:nonzero;stroke:none"
                     d="m 324.973,60.469 v -0.043 c 0,-2.637 -1.938,-4.832 -4.661,-4.832 -2.722,0 -4.609,2.152 -4.609,4.789 v 0.043 c 0,2.633 1.93,4.828 4.656,4.828 2.723,0 4.614,-2.152 4.614,-4.785 z m -12.805,0 v -0.043 c 0,-4.375 3.449,-7.949 8.191,-7.949 4.743,0 8.145,3.531 8.145,7.906 v 0.043 c 0,4.371 -3.445,7.945 -8.192,7.945 -4.742,0 -8.144,-3.531 -8.144,-7.902" /><path
                     inkscape:connector-curvature="0"
                     id="path104"
                     style="fill:#211e1e;fill-opacity:1;fill-rule:nonzero;stroke:none"
                     d="m 335.77,52.738 h 11.703 v 3.074 h -8.325 v 3.274 h 7.332 v 3.074 h -7.332 v 5.949 H 335.77 V 52.738" /><path
                     inkscape:connector-curvature="0"
                     id="path106"
                     style="fill:#ffffff;fill-opacity:1;fill-rule:nonzero;stroke:none"
                     d="M 37.812,137.328 36.914,136.91 C 26.938,132.289 18.887,125.59 13.625,117.516 1.016,98.16 0.602,78.176 0.156,57.012 0.125,55.41 0.09,53.801 0.051,52.191 L 0,50 h 75.582 l -0.047,2.191 c -0.039,1.621 -0.078,3.239 -0.109,4.848 -0.446,21.152 -0.864,41.133 -13.473,60.477 -5.246,8.054 -13.281,14.757 -23.242,19.394 l -0.899,0.418" /><path
                     inkscape:connector-curvature="0"
                     id="path108"
                     style="fill:#fdd433;fill-opacity:1;fill-rule:nonzero;stroke:none"
                     d="M 37.641,76.059 8.023,99.375 C 3.266,84.629 3.398,69.219 3.012,53.52 h 69.097 c -0.382,15.734 -0.207,31.085 -5,45.867 L 37.641,76.059" /><path
                     inkscape:connector-curvature="0"
                     id="path110"
                     style="fill:#fdd433;fill-opacity:1;fill-rule:nonzero;stroke:none"
                     d="m 61.617,111.957 c -0.726,1.297 -1.508,2.586 -2.344,3.871 -5.265,8.09 -13.093,14.07 -21.695,18.067 -8.637,-3.997 -16.461,-9.977 -21.726,-18.067 -0.825,-1.258 -2.301,-3.781 -2.301,-3.781 l 24.09,-19.227 23.976,19.137" /><path
                     inkscape:connector-curvature="0"
                     id="path112"
                     style="fill:#cf113a;fill-opacity:1;fill-rule:nonzero;stroke:none"
                     d="m 17.367,65.355 c -3.5,-0.742 -6.617,-3.343 -5.863,-6.644 0.008,-0.035 -0.137,-0.856 -0.438,-0.965 -0.023,-0.012 -0.07,-0.105 -0.125,-0.117 -0.132,-0.035 -0.242,-0.094 -0.355,-0.176 -0.039,-0.027 -0.203,-0.082 -0.203,-0.141 -0.063,0.137 -0.051,0.258 -0.141,0.383 -0.035,0.043 -0.086,0.11 -0.137,0.137 -0.062,0.031 -0.066,0.09 -0.113,0.137 C 9.73,58.23 9.867,58.633 9.906,58.934 9.922,59.008 9.953,59.102 9.859,59.121 9.75,59.141 9.836,59.09 9.707,59.008 9.68,58.992 9.633,58.941 9.602,58.922 9.543,58.902 9.328,58.867 9.289,58.816 9.25,58.762 9.266,58.738 9.215,58.695 9.094,58.582 9.082,58.367 8.996,58.145 8.98,58.102 8.945,57.906 8.945,57.863 8.945,57.641 8.375,57.281 8.594,57.465 8.672,57.527 8.582,57.375 8.277,57.301 8.082,57.25 7.859,57.262 7.645,57.289 c -0.047,0.008 -0.09,0.043 -0.122,0.066 -0.222,0.172 -0.425,0.379 -0.714,0.391 0.046,-0.031 0.074,0.027 0.093,0.055 0.141,0.179 0.039,0.394 0.121,0.59 0.079,0.195 0.219,0.343 0.383,0.476 0.16,0.125 0.438,-0.047 0.559,0.172 0,-0.004 0.262,0.063 0.008,0.32 -0.473,0.477 -0.996,0.09 -1.383,0.973 0.59,-0.25 0.652,0.648 0.906,0.68 1.125,0.152 1.984,0.355 2.606,1.496 0.375,0.699 -0.68,0.726 0.277,0.894 0.484,0.082 0.809,0.325 1.051,0.672 0.258,0.356 0.293,0.844 0.566,1.18 0.203,0.238 0.277,0.289 0.52,0.492 0.109,0.09 0.457,0.18 0.586,0.211 0.128,0.039 0.207,0.102 0.332,0.145 0.132,0.05 0.269,0.093 0.382,0.187 0.09,0.078 0.332,0.16 0.387,0.273 0.098,0.188 0.02,0.383 0.125,0.575 0.031,0.054 0.176,0.011 0.242,0.031 0.055,0.02 0.188,0.027 0.227,0.02 0.226,-0.051 0.285,-0.067 0.453,-0.086 0.262,-0.032 0.234,0.05 0.57,0.035 0.071,0 0.098,0.051 0.196,0.051 0.066,0 0.179,0.07 0.199,0.007 0.101,-0.316 0.269,-0.629 0.461,-0.941 0.187,-0.313 0.172,-0.34 0.41,-0.672 -0.027,0.012 0.309,-0.223 0.281,-0.227" /><path
                     inkscape:connector-curvature="0"
                     id="path114"
                     style="fill:#cf113a;fill-opacity:1;fill-rule:nonzero;stroke:none"
                     d="m 8.633,65.762 c 1.027,0.554 0.89,1.918 1.812,2.359 1.641,0.781 3.602,1.317 5.352,0.461 -0.391,1.215 0.043,2.23 -0.129,2.367 -0.551,0.438 -2.219,-0.082 -3.285,-0.504 -0.735,-0.297 -1.332,0.797 -2.145,0.703 0.039,-0.093 0.133,-0.375 0.078,-0.546 -0.125,-0.399 -0.23,-0.516 -0.89,-0.438 C 9.004,70.211 9.18,70.562 8.543,70.875 8.293,70.723 7.758,70.555 7.68,71.035 7.641,71.258 7.195,70.258 7.285,70.094 7.699,69.348 7.785,69.172 7.758,69.012 7.707,68.766 6.805,68.434 6.691,68.641 6.406,69.129 5.582,67.055 8.023,67.188 7.367,66.766 7.441,66.695 7.594,66.191 7.613,66.121 7.367,65.863 7.199,66.043 7.145,65.848 7.277,65.637 7.426,65.617 7.828,65.559 8.223,65.539 8.633,65.762" /><path
                     inkscape:connector-curvature="0"
                     id="path116"
                     style="fill:#cf113a;fill-opacity:1;fill-rule:nonzero;stroke:none"
                     d="m 13.492,60.734 c 1.481,0.34 3.696,-1.57 4.985,0.68 -0.954,-0.344 -3.758,1.156 -4.985,-0.68" /><path
                     inkscape:connector-curvature="0"
                     id="path118"
                     style="fill:#cf113a;fill-opacity:1;fill-rule:nonzero;stroke:none"
                     d="m 25.887,64.008 c -0.032,1.933 -2.032,4.015 -0.41,5.855 -0.661,-0.008 -1.446,-0.242 -1.907,-0.613 -0.258,-0.207 -0.203,0.922 -0.168,1.152 0.032,0.2 -1.23,-1.187 -1.703,-0.851 -1.344,0.961 -1.922,1.359 -3.91,1.433 -0.555,0.02 -0.844,0.465 -0.996,0.946 -0.453,-0.918 -0.117,-3.016 0.141,-3.946 0.703,-2.55 3.265,-3.312 5.328,-4.531 1.476,-0.875 2.105,-2.594 2.031,-4.269 1.047,1.308 1.613,3.183 1.594,4.824" /><path
                     inkscape:connector-curvature="0"
                     id="path120"
                     style="fill:#cf113a;fill-opacity:1;fill-rule:nonzero;stroke:none"
                     d="m 16.469,85.75 c 0.254,0.055 0.066,0.262 -0.031,0.324 -0.204,0.141 -0.348,0.309 -0.477,0.508 -0.102,0.152 -0.168,0.32 -0.133,0.508 0.027,0.137 0.074,0.258 0.125,0.383 0.035,0.078 0.106,0.121 0.164,0.191 0.024,0.02 0.117,0.137 0.117,0.141 -0.058,-0.196 0.219,-0.387 0.282,-0.352 1.277,0.738 1.347,-0.758 2.113,-1.265 0.324,-0.219 1.055,0.031 0.867,0.699 0.758,-0.41 0.984,-1.43 1.574,-2.075 1.317,-1.425 3.149,-2.371 4.895,-3.136 -0.633,-0.672 -1.559,-1.235 -2.027,-1.996 -0.239,-0.383 -0.512,-1.125 0,-0.992 2.144,0.562 3.343,-0.747 3.585,-2.43 3.168,0.41 3.997,-2.59 4.422,-4.86 0.207,-1.101 0.809,-1.195 0.153,-3.066 -0.274,-0.785 1.41,-1.043 1.121,-2.398 -0.078,-0.375 -0.543,-0.746 -0.817,-0.793 0.262,0.73 -0.961,0.914 -1.093,1.214 -0.207,0.465 -0.508,0.84 -0.547,1.329 -1.035,-1.43 -0.2,-3.149 0.773,-4.493 1.414,-1.949 4.352,-0.925 5.59,0.332 0.02,-0.632 -0.469,-1.433 -0.871,-1.82 1.156,-0.148 2.414,0.555 3.988,-0.281 0.91,-0.481 1.828,-0.895 2.258,-1.973 -1.938,0.266 -4.562,-1.226 -6.305,-1.527 -3.254,-0.567 -5.433,1.656 -6.597,4.297 -1.16,2.644 -0.418,4.617 0.84,6.59 0.316,0.5 -1.118,0.171 -1.68,0.468 -0.551,0.282 -0.778,0.961 -0.653,1.559 0.696,-0.742 2.536,-0.285 2.7,0.992 0.226,1.719 -1.508,4.223 -3.18,3.473 -1.797,-0.805 -2.813,-2.696 -3.406,-4.828 -1.531,1.324 -4.367,0.234 -5.684,1.523 -1.254,1.223 1.949,2.059 3.199,2.633 0.457,0.215 0.918,0.687 0.844,1.266 -1.953,-1.149 -4.308,0.152 -4.191,2.238 0.086,1.558 1.992,2.527 3.586,2.664 0.66,0.047 1.058,0.785 0.257,1.293 -1.414,0.883 -2.988,1.867 -4.511,0.269 -0.254,-0.265 -1.164,-0.101 -1.344,0.387 -0.09,0.234 -0.117,0.598 -0.082,0.836 0.082,-0.144 0.18,-0.352 0.309,-0.332 0.148,0.016 0.332,0.176 0.312,0.285 -0.133,0.785 -1.16,0.277 -1.476,0.887 -0.008,0.012 -0.024,0.019 -0.032,0.039 -0.019,0.051 -0.047,0.094 -0.07,0.137 -0.207,0.414 -0.496,0.672 0.019,0.996 -0.015,-0.078 0.25,0.332 0.247,0.402 0.027,-0.375 0.414,-0.371 0.414,-0.371 l 0.226,0.023 0.227,0.102" /><path
                     inkscape:connector-curvature="0"
                     id="path122"
                     style="fill:#cf113a;fill-opacity:1;fill-rule:nonzero;stroke:none"
                     d="M 9.859,78.402 C 9.66,78.34 9.449,78.418 9.25,78.508 9.121,78.562 8.969,78.504 8.891,78.633 8.844,78.711 8.816,78.797 8.84,78.887 8.855,78.934 8.875,79.023 8.914,79.051 8.648,79.031 8.395,78.852 8.191,78.668 8.125,78.605 8.082,78.539 8.02,78.473 7.98,78.43 7.984,78.352 7.953,78.293 7.926,78.23 7.941,78.16 7.938,78.094 7.934,77.914 7.926,77.723 8.012,77.551 8.047,77.473 8.086,77.395 8.141,77.328 8.188,77.27 8.23,77.227 8.281,77.176 8.418,77.047 8.57,76.945 8.75,76.891 c 0.262,-0.079 0.555,-0.055 0.805,0.054 0.203,0.086 0.441,0.078 0.652,0.137 0.113,0.031 0.324,-0.297 0.172,-0.332 C 9.711,76.59 9.715,76.406 9.465,75.734 9.348,75.602 9.199,75.75 9.133,75.82 c -0.004,-1.289 1.527,-1.375 2.168,-0.863 0.949,0.762 0.238,2.254 1.402,2.668 0.606,0.215 1.25,0.383 1.875,0.117 1.125,-0.48 0.004,-1.609 0.367,-2.57 0.735,-1.93 2.364,-2.031 4.301,-0.168 -1.734,0.574 -2.547,2.867 -1.594,4.379 -1.531,-0.598 -3.461,0.414 -4.535,1.097 1,-1 -0.406,-1.808 -0.758,-1.628 l -0.425,0.296 c -0.204,0.254 -0.223,0.524 -0.473,0.77 -0.141,0.141 -0.219,0.164 -0.406,0.211 -0.254,0.066 -0.41,0.047 -0.637,-0.102 -0.039,-0.023 -0.176,0.032 -0.203,0.067 -0.125,0.148 -0.004,0.226 -0.008,0.281 C 10.184,80.355 10.023,80.227 10,80.207 9.859,80.102 9.691,80.008 9.602,79.855 9.512,79.707 9.449,79.336 9.551,79.129 9.648,78.93 9.855,78.867 9.992,78.727 10.121,78.598 9.965,78.398 9.809,78.375" /><path
                     inkscape:connector-curvature="0"
                     id="path124"
                     style="fill:#cf113a;fill-opacity:1;fill-rule:nonzero;stroke:none"
                     d="m 47.09,61.352 c 0.14,0.089 -0.008,0.339 -0.168,0.382 -0.188,0.055 -0.445,-0.023 -0.61,0.039 -0.73,0.266 -0.73,2.063 -0.628,1.856 0.109,-0.231 0.644,-0.078 0.996,-0.012 0.558,0.113 0.988,-1.027 1.359,-0.996 0.875,0.078 1.695,1.168 2.031,1.883 0.059,0.129 -0.371,0.133 -0.398,0.578 1.195,-0.113 2.203,0.664 3.066,1.371 0.422,-0.73 0.844,-1.183 1.321,-1.66 -1.797,-1.746 -5.364,-2.289 -4.813,-5.473 0.074,-0.406 -0.391,-0.765 -0.598,-0.968 -0.226,-0.223 -0.757,-0.231 -1.086,-0.313 0.344,0.707 -0.273,0.777 -0.183,1.895 0,0.039 -0.102,0.015 -0.141,0 -0.215,-0.094 -0.394,-0.227 -0.597,-0.352 -0.192,-0.117 -0.36,-0.086 -0.567,-0.055 -0.125,0.016 -0.238,0.071 -0.34,0.149 -0.172,0.117 -0.257,0.277 -0.375,0.449 -0.023,0.031 -0.047,0.066 -0.074,0.094 -0.039,0.039 -0.113,0.164 -0.117,0.222 0.09,-0.011 0.383,0.012 0.43,0.09 0.086,0.129 0.086,0.281 0.187,0.403 0.121,0.156 0.227,0.164 0.403,0.238 0.281,0.117 0.531,0.172 0.832,0.14" /><path
                     inkscape:connector-curvature="0"
                     id="path126"
                     style="fill:#cf113a;fill-opacity:1;fill-rule:nonzero;stroke:none"
                     d="m 51.734,60.07 c 1.121,-0.078 2.231,-0.941 3.469,0.512 -0.226,-0.109 -0.492,-0.144 -0.637,-0.031 -1.367,1.105 -3.035,0.73 -3.91,-0.637 0.356,-0.062 0.789,0.18 1.078,0.156" /><path
                     inkscape:connector-curvature="0"
                     id="path128"
                     style="fill:#cf113a;fill-opacity:1;fill-rule:nonzero;stroke:none"
                     d="m 56.582,64.137 c 1.84,-0.93 3.703,-1.676 4.457,-3.961 0.152,-0.449 0.488,0.664 0.512,0.726 0.976,2.786 -0.965,5.559 -0.567,8.403 -0.648,-0.399 -1.379,-0.672 -2.089,-0.696 -2.528,-0.07 -3.129,1.465 -3.27,1.325 -0.695,-0.704 -2.684,-1.305 -2.539,-1.172 -1.184,-1.09 2.226,-3.977 3.496,-4.625" /><path
                     inkscape:connector-curvature="0"
                     id="path130"
                     style="fill:#cf113a;fill-opacity:1;fill-rule:nonzero;stroke:none"
                     d="m 51.551,82.688 c 0.25,0.394 -0.086,-0.219 0.203,0.445 1.332,-0.563 2.711,-1.199 4.184,-0.598 -0.653,-3 1.535,-3.73 1.707,-4.176 0.277,-0.718 -1.184,-2.148 -2.286,-1.75 -1.406,0.504 -0.82,2.274 -1.086,3.52 -0.144,0.683 -0.996,1.187 -1.703,0.945 -1.16,-0.402 -1.629,-1.484 -1.914,-2.699 -0.191,-0.813 -1.769,-0.906 -2.113,-0.242 -0.965,1.875 0.578,-0.219 0.477,1.203 -0.016,0.246 -1.129,0.062 -1.379,0.91 -0.172,0.578 0.379,0.961 1.066,1.164 0.129,0.039 -0.137,-0.285 0.039,-0.359 0.129,-0.047 0.633,0.222 0.57,0.258 -0.66,0.406 -0.836,1.343 0.352,1.753 0.012,0.004 -0.086,-0.339 0.004,-0.402 0.926,-0.691 1.89,0.051 1.894,0.028" /><path
                     inkscape:connector-curvature="0"
                     id="path132"
                     style="fill:#cf113a;fill-opacity:1;fill-rule:nonzero;stroke:none"
                     d="m 31.5,101.648 c 1.109,0.512 1.469,-0.039 2.922,-0.273 0.203,-0.035 1.027,0.504 1.262,0.773 -1.457,0.231 -3.235,1.5 -4.184,-0.5" /><path
                     inkscape:connector-curvature="0"
                     id="path134"
                     style="fill:#cf113a;fill-opacity:1;fill-rule:nonzero;stroke:none"
                     d="m 30.906,102.816 c -0.066,-0.078 -0.164,-0.105 -0.254,-0.14 -0.09,-0.043 -0.183,-0.078 -0.293,-0.09 -0.023,-0.004 -0.207,-0.043 -0.234,-0.055 -0.008,0.063 0.074,0.235 0.027,0.274 -0.117,0.113 -0.156,0.082 -0.25,0.222 -0.035,0.059 -0.074,0.114 -0.086,0.176 -0.027,0.125 -0.082,0.27 -0.097,0.418 -0.004,0.07 0.023,0.246 0.043,0.313 0.008,0.039 0.086,0.195 0.109,0.238 0,0 0.176,0.191 0.168,0.18 0.203,0.207 0.035,0.082 0.285,0.339 0.133,0.118 -0.054,0.332 -0.179,0.297 -0.856,-0.246 -0.977,-1.246 -1.758,-1.547 -0.571,-0.218 -1.383,0.223 -1.469,1.09 0.187,-0.058 0.391,0.016 0.426,0.172 0.211,0.871 1.488,0.352 1.515,0.969 0.028,0.402 -0.953,-0.07 -1.339,0.187 -0.512,0.344 -0.582,1.325 -0.133,1.895 0.468,-0.442 1.047,0.207 1.5,-0.117 0.312,-0.223 0.425,-0.543 0.75,-0.688 0.98,-0.437 1.269,0.469 1.054,1.379 0.532,-0.242 1.778,-0.5 2.063,-0.578 0.516,-0.141 0.539,-1.336 1.176,-1.777 -0.903,-0.004 -2.012,-0.399 -2.262,-1.27 -0.023,-0.094 0.043,-0.199 0.051,-0.308 0.019,-0.336 -0.008,-0.657 -0.137,-0.965 -0.012,-0.035 -0.047,-0.075 -0.07,-0.11 -0.035,-0.054 -0.067,-0.101 -0.098,-0.152 -0.09,-0.125 -0.223,-0.188 -0.352,-0.262 -0.054,-0.035 -0.124,-0.047 -0.167,-0.101" /><path
                     inkscape:connector-curvature="0"
                     id="path136"
                     style="fill:#cf113a;fill-opacity:1;fill-rule:nonzero;stroke:none"
                     d="m 24.309,109.008 c 0.39,0.758 -1.543,-0.465 -2.27,0.668 -0.23,0.363 -0.105,1.179 -0.105,1.644 0.441,-0.41 0.882,0.36 1.714,-0.375 0.094,0.082 0.192,0.133 0.067,0.262 -0.309,0.313 -0.477,0.699 -0.317,1.066 0.102,0.247 0.793,0.735 0.797,0.696 0.071,-0.504 0.922,0 1.055,-0.985 0.055,-0.402 0.176,-1.074 0.762,-0.832 0.531,0.223 0.64,0.825 0.515,1.426 0.852,-0.277 2.348,-1.152 3.239,-0.504 1.203,0.864 3.172,1.223 4.574,1.656 -0.934,-0.644 -1.227,-2.335 -1.07,-3.433 -2.211,0.433 -4.532,0.363 -6.582,-0.586 -0.559,-0.258 -0.485,-0.906 -0.657,-1.441 -0.187,-0.598 -0.945,-1.153 -1.629,-1.102 -0.371,0.027 -1.254,0.801 -1.086,0.84 -0.058,-0.012 -0.054,0.109 -0.082,0.164 0.164,-0.106 0.379,0 0.45,0.18 0.054,0.128 0.109,0.261 0.211,0.371 0.128,0.121 0.343,0.148 0.414,0.285" /><path
                     inkscape:connector-curvature="0"
                     id="path138"
                     style="fill:#cf113a;fill-opacity:1;fill-rule:nonzero;stroke:none"
                     d="m 29.605,121.078 c 0.43,-0.523 0.786,-0.242 0.973,-0.238 0.449,0.015 0.418,0.648 0.371,1.051 1.758,-0.852 3.43,-2.063 5.496,-1.618 -1.203,-1.257 -0.777,-3.953 0.922,-4.289 0,0 -1.094,-0.179 -1.215,-0.254 -1.472,-0.929 -3.277,-1.824 -4.269,0.137 -0.496,0.973 0.414,1.758 1.09,2.563 0.121,0.148 -0.075,0.238 -0.235,0.281 -1.613,0.414 -4.586,0.652 -4.722,-1.762 -0.012,-0.242 -0.637,-0.445 -1.039,-0.433 -1.196,0.039 -1.176,1.558 -1.043,1.453 0.265,-0.199 1.062,-0.125 0.968,0.484 -0.09,0.57 -1.203,-0.301 -1.648,0.274 -0.375,0.476 -0.359,1.265 -0.098,1.793 -0.054,-0.196 0.172,-0.34 0.293,-0.356 1.239,-0.207 1.313,0.223 0.942,1.426 -0.028,0.09 0.367,0.848 0.629,0.914 -0.024,-0.004 -0.016,-0.172 0.019,-0.231 0.031,-0.054 0.094,-0.097 0.156,-0.121 0.137,-0.047 0.274,-0.039 0.407,-0.074 0.07,-0.019 0.117,-0.062 0.175,-0.094 0.102,-0.062 0.168,-0.148 0.235,-0.238 0.289,-0.359 0.543,-0.828 1.031,-0.871 0.223,-0.023 0.363,0.078 0.559,0.199" /><path
                     inkscape:connector-curvature="0"
                     id="path140"
                     style="fill:#cf113a;fill-opacity:1;fill-rule:nonzero;stroke:none"
                     d="m 42.43,126.684 c 1.132,-1.125 1.953,-2.625 3.164,-3.723 -1.328,-0.781 -2.977,-1.598 -3.149,-3.356 -0.015,-0.117 0.184,-0.253 0.231,-0.23 1.844,1.039 4.336,1.125 5.672,-0.766 1.074,-1.523 1.543,-4 3.636,-4.144 -0.699,-1.336 0.086,-2.883 1.235,-3.594 -0.387,-0.144 -0.883,-0.461 -1.321,-0.383 -0.527,0.094 -0.753,0.809 -1.355,0.922 0.949,-3.203 -0.891,-7.672 -4.414,-7.594 -0.66,0.016 -1.516,0.547 -1.731,1.27 -0.203,0.68 -0.308,1.535 0.18,2.121 1.156,1.379 1.988,2.887 1.625,4.711 0.82,-0.711 1.578,-1.754 1.551,-2.867 -0.004,-0.281 0.504,-0.078 0.578,-0.196 0.965,-1.41 -0.613,-2.285 -1.449,-3.175 -0.231,-0.239 0.359,-0.614 0.433,-0.586 3.024,0.906 3.313,4.629 2.016,7.047 -0.344,-0.43 -1.625,-0.286 -2.059,-0.438 1.415,0.715 1.047,0.817 0.993,1.051 -0.11,0.426 -1.379,0.242 -1.625,0.555 -0.422,0.539 -0.743,0.781 -0.778,2.578 0.586,-0.633 1.356,-1.59 2.188,-1.164 1.785,0.914 -0.086,3.988 -1.766,4.496 -1.433,0.437 -2.758,-0.024 -3.644,-1.27 -1.286,-1.804 -0.352,-3.988 -1.262,-5.82 -0.762,0.191 -0.586,1.18 -0.984,1 -1.395,-0.649 -2.192,-2.141 -3.204,-3.391 -0.418,0.149 -0.605,0.535 -1.007,0.52 -0.598,-0.028 -1.723,-0.207 -1.969,0.09 -0.277,0.351 -0.485,2.886 1.984,3.808 1.68,0.629 3.008,1.188 4.067,2.492 -0.711,0.059 -0.957,-0.285 -1.536,-0.304 -0.57,-0.024 -0.929,0.199 -1.359,0.418 -0.41,0.211 -0.894,1.015 -0.812,1.664 0.386,3.074 3.996,3.113 5.656,5.054 0.285,0.332 -0.434,1.665 -1.117,2.208 -0.578,0.46 -1.965,-0.696 -1.739,-1.68 0.18,-0.785 -1.714,-1.309 -2.375,-0.41 0.262,-0.032 0.328,0.148 0.305,0.265 -0.117,0.727 0.777,0.754 0.75,1.121 -0.039,0.508 -0.48,-0.211 -0.824,-0.277 -0.766,-0.152 -1.527,0.117 -1.973,0.723 -0.137,0.187 -0.437,0.484 -0.304,0.797 0.585,-0.286 0.89,0.625 1.433,0.339 0.332,-0.168 0.606,-0.461 1.004,-0.359 0.16,0.047 0.324,0.258 0.18,0.348 -1.067,0.687 -1.918,1.64 -1.145,2.734 0.02,-0.258 0.219,-0.437 0.383,-0.48 0.309,-0.09 0.719,0.121 1.023,0.023 0.493,-0.168 0.239,-0.652 0.426,-1.004 0.297,-0.558 1.305,-1.476 1.871,-0.805 0.102,0.118 0.024,0.567 -0.281,0.567 0.309,0 0.59,0.301 0.856,0.246 0.078,-0.008 0.156,-0.008 0.222,-0.051 0.059,-0.027 0.129,-0.043 0.172,-0.086 0.125,-0.129 0.27,-0.261 0.293,-0.457 0.227,0.016 0.516,0.043 0.664,-0.156 0.145,-0.191 0.324,-0.34 0.484,-0.492" /><path
                     inkscape:connector-curvature="0"
                     id="path142"
                     style="fill:#cf113a;fill-opacity:1;fill-rule:nonzero;stroke:none"
                     d="m 37.281,104.457 c 1.981,-0.551 4.18,-1.578 4.653,-3.777 0.601,0.359 0.789,1.179 0.796,1.683 0.043,2.754 -1.164,5.141 -0.578,8.024 0.067,0.324 0.66,1.351 0.391,1.234 -0.328,-0.152 -1.027,-0.805 -1.406,-0.504 -0.481,0.375 -0.449,0.973 -0.68,0.832 -0.871,-0.531 -1.789,-1.312 -2.215,-2.316 -0.16,-0.387 -0.094,-1.203 -0.199,-1.086 -0.66,0.723 -2.016,0.871 -3.016,1.031 0.227,-0.207 0.434,-1.031 0.395,-1.199 -0.785,-0.395 -1.918,0.957 -1.902,0.785 0.042,-0.437 0.089,-0.57 0.132,-0.691 0.586,-1.731 1.696,-3.477 3.629,-4.016" /><path
                     inkscape:connector-curvature="0"
                     id="path144"
                     style="fill:#cf113a;fill-opacity:1;fill-rule:nonzero;stroke:none"
                     d="m 21.172,58.605 c 0.086,-0.039 0.125,-0.093 0.117,-0.109 -0.719,-1.004 -1.586,-0.906 -1.949,-0.008 -0.246,0.61 1.195,0.414 1.832,0.117 m 1.406,-1.074 c 0.512,-0.011 0.891,-0.328 1.219,-0.676 -0.027,0.29 0.394,0.7 0.238,1.008 -0.195,0.383 -0.691,0.617 -0.785,0.977 -0.207,0.738 0.387,1.453 -0.043,2.183 -1.273,2.149 -4.047,1.438 -5.941,1.915 0.129,-0.231 -0.032,-0.579 -0.176,-0.672 0.84,0.109 1.957,-0.078 2.183,-0.711 0.278,-0.782 0.418,-1.364 0.047,-2.008 -0.605,-1.07 -1.867,-0.567 -2.816,-0.199 -0.145,-0.66 0.473,-1.063 0.832,-1.157 1.004,-0.261 1.914,-0.699 2.848,-1.046 0.816,-0.305 1.558,0.41 2.394,0.386" /><path
                     inkscape:connector-curvature="0"
                     id="path146"
                     style="fill:#cf113a;fill-opacity:1;fill-rule:nonzero;stroke:none"
                     d="m 57.93,58.219 c 0.078,-0.043 -0.067,0.062 0,-0.004 -0.785,-0.395 -1.805,-0.906 -2.164,0.137 -0.262,0.773 1.48,0.234 2.164,-0.133 m 1.254,3.367 c -0.27,0.23 -0.723,0.226 -1.028,0.437 -0.191,0.129 -0.363,0.27 -0.554,0.387 -0.09,0.055 -0.364,0.18 -0.465,0.199 -0.278,0.075 -0.215,0.039 -0.469,0.075 -0.152,0.023 -0.227,0.027 -0.375,0.027 -0.156,0 -0.621,0.016 -0.773,0.012 -0.36,-0.004 -0.422,0.015 -0.782,-0.039 -0.211,-0.036 -0.406,-0.09 -0.601,-0.157 -0.129,-0.047 -0.27,-0.066 -0.41,-0.074 0.019,-0.141 0.035,-0.297 0.148,-0.394 0.152,-0.129 0.184,-0.012 0.398,-0.032 0.008,-0.004 0.313,0.024 0.325,0.024 0.047,0 0.113,0 0.164,-0.012 0.093,-0.012 0.176,-0.031 0.258,-0.07 0.109,-0.051 0.226,-0.086 0.324,-0.164 0.035,-0.028 0.074,-0.055 0.109,-0.09 0.074,-0.067 0.168,-0.106 0.235,-0.188 0.207,-0.246 0.359,-0.492 0.378,-0.816 0.024,-0.238 0.043,-0.484 0,-0.731 -0.007,-0.039 -0.015,-0.078 -0.019,-0.113 -0.016,-0.191 -0.109,-0.367 -0.199,-0.547 -0.551,-1.05 -1.868,-0.023 -2.774,-0.066 0,-0.203 -0.019,-0.57 0.086,-0.703 0.641,-0.828 1.637,-0.422 2.156,-0.805 1.739,-1.285 2.204,-0.359 4.02,0.145 0.547,0.152 1.324,-0.192 1.84,-0.414 0.129,-0.051 0.129,0.769 0.062,0.937 -0.218,0.578 -0.812,0.547 -1.019,1.063 -0.309,0.757 -0.36,1.828 -1.16,2.207" /><path
                     inkscape:connector-curvature="0"
                     id="path148"
                     style="fill:#cf113a;fill-opacity:1;fill-rule:nonzero;stroke:none"
                     d="m 37.391,100.25 c 0.312,0.117 1.234,-0.391 1.566,-0.574 0.082,-0.051 0.141,-0.129 0.203,-0.192 0.008,-0.011 -0.004,-0.031 -0.019,-0.031 -0.266,-0.058 -0.504,-0.074 -0.762,-0.101 -0.195,-0.028 -0.34,-0.157 -0.535,-0.196 -0.051,-0.011 -0.098,-0.008 -0.153,0.016 -0.07,0.027 -0.093,0.086 -0.156,0.113 -0.094,0.039 -0.226,0.039 -0.312,0.117 -0.086,0.078 -0.161,0.153 -0.188,0.262 -0.035,0.129 -0.004,0.316 0.086,0.426 0.07,0.09 0.172,0.129 0.27,0.16 m 2.39,-1.402 c 0.805,0.191 1.684,0.211 2.203,-0.493 0.258,1.09 -0.742,1.231 -0.925,1.762 -0.282,0.817 -0.266,1.625 -1.051,2.043 -1.567,0.836 -3.524,1.836 -5.32,1.985 0.011,-0.223 -0.137,-0.625 0.152,-0.637 0.629,-0.028 1.117,-0.496 1.262,-0.871 0.195,-0.516 -0.028,-1.77 -0.497,-2.016 -0.543,-0.285 -1.015,0.149 -1.515,0.367 -0.207,-0.547 0.652,-1.465 1.996,-1.379 -0.035,-0.007 0.668,-0.773 0.637,-0.742 0.879,-0.609 1.843,-0.305 3.058,-0.019" /><path
                     inkscape:connector-curvature="0"
                     id="path150"
                     style="fill:#cf113a;fill-opacity:1;fill-rule:nonzero;stroke:none"
                     d="m 64.195,91.223 c -0.023,-0.27 0.637,-1.055 0.653,-1.637 0.066,-1.973 1.25,-2.902 1.289,-5.008 0.004,-0.551 -2.27,-1.066 -2.371,-2.25 -0.047,-0.59 -0.239,-1.437 0.351,-1.422 0.754,0.012 1.492,-0.121 2.028,-0.59 2.378,-2.093 0.371,-4.957 0.082,-7.484 -0.063,-0.559 0.961,-1.75 0.933,-2.144 -0.168,-2.145 -0.562,-4.098 0.203,-6.208 -0.597,0.54 -0.781,1.422 -1.281,1.875 -0.246,0.223 -0.363,-0.273 -0.348,-0.351 0.297,-1.856 1.039,-3.477 1.895,-5.238 1.019,-2.09 0.508,-3.786 -1.371,-4.407 -1.719,-0.574 -3.383,1.028 -3.57,2.676 -0.172,1.512 0.3,3.32 0.656,4.559 0.101,0.363 0.039,0.773 0.117,1.086 0.309,-1.25 0.344,-2.551 0.324,-3.875 -0.008,-0.317 0.25,-0.75 0.578,-0.848 1.117,-0.324 1.696,0.484 1.625,1.113 -0.246,1.981 -0.644,3.496 -1.117,5.461 -0.543,2.242 0.262,4.465 0.496,6.649 -0.859,-0.508 -1.793,-0.528 -2.125,0.812 -0.183,0.711 0.461,1.461 0.66,2.094 0.02,-0.859 0.828,-2.031 1.614,-1.508 0.964,0.645 1,3.719 0.785,4.125 -0.465,0.891 -1.239,1.527 -2.305,1.215 -0.601,-0.18 -0.355,-1.066 -0.719,-1.445 -1.918,-1.985 -2.793,-4.36 -2.957,-7.098 -0.027,-0.402 0.184,-1.457 0.125,-1.48 -2.507,-1.032 -3.664,0 -4.707,1.48 -0.179,-0.449 -1.136,-1.078 -1.211,-0.937 -0.476,0.882 -0.339,2.488 0.371,3.109 1.934,1.676 3.856,2.797 4.942,5.187 -1.164,0.149 -2.293,0.485 -2.738,1.7 -0.465,1.265 -0.309,3.031 1.031,3.543 1.09,0.421 2.965,-0.047 3.375,0.003 1.156,0.153 2.453,1.153 2.269,2.247 -0.007,0.054 -0.496,2.617 -1.601,1.984 -0.602,-0.348 -0.262,-1.75 -1.18,-1.969 -1.23,-0.301 -1.535,1.422 -1.379,1.274 0.395,-0.375 0.668,0.246 1.43,0.664 -2.578,-0.559 -1.777,1.808 -1.688,1.543 0.133,-0.368 0.602,0.019 1.528,-0.047 0.031,0 -0.203,0.195 -0.215,0.215 -0.145,0.238 -0.219,0.355 -0.32,0.605 -0.051,0.117 -0.047,0.246 -0.028,0.371 0.012,0.125 0.055,0.231 0.125,0.344 0.012,0.023 0.035,0.043 0.063,0.062 0.011,0 0.047,0.059 0.054,0.059 0.059,0.008 -0.046,-0.184 0.102,-0.195 0.031,0 0.144,-0.016 0.172,-0.004 0.07,0.023 0.156,0.066 0.226,0.09 0.067,0.015 0.137,0.027 0.211,0.039 0.172,0.023 0.239,0.027 0.391,-0.024 0.129,-0.043 0.262,-0.07 0.383,-0.16 -0.168,0.117 0.183,-0.168 0.168,-0.137 0.16,-0.343 0.261,-0.246 0.293,-0.304 0.273,-0.52 0.511,-0.571 1.117,-0.5 0.059,0.008 0.172,0.129 0.207,0.183 0.043,0.071 0.168,0.395 0.144,0.278 0.047,0.238 0.196,0.39 0.215,0.625" /><path
                     inkscape:connector-curvature="0"
                     id="path152"
                     style="fill:#cf113a;fill-opacity:1;fill-rule:nonzero;stroke:none"
                     d="m 45.605,67.484 c -0.156,-0.097 -0.207,-0.336 -0.316,-0.437 -0.031,-0.035 -0.062,-0.074 -0.094,-0.113 -0.054,-0.055 -0.082,-0.133 -0.101,-0.207 -0.106,-0.368 -0.055,-0.801 0.281,-1.047 0.012,-0.012 0.008,-0.035 0.016,-0.047 0.019,-0.035 0.07,-0.051 0.078,-0.078 0.008,-0.035 0.062,-0.035 0.043,-0.075 0.027,0.012 0.027,-0.019 0.035,-0.031 0.066,-0.082 0.07,-0.238 -0.059,-0.281 0.11,0.012 0.215,0.008 0.324,0.031 0.04,0.008 0.083,0.02 0.122,0.028 0.41,0.05 0.921,0.234 1.031,0.644 l 0.14,0.164 c 0.426,0.985 0.282,3.406 2.641,3.988 1.231,0.305 2.465,0.688 3.727,0.665 -0.305,1.23 -0.301,2.785 0.672,3.679 -1.418,-0.773 -2.36,-0.609 -3.59,-1.777 -0.551,-0.52 -1.828,-1.231 -2.446,-1.125 -0.257,0.039 0.352,-0.82 -0.218,-0.992 -0.371,-0.106 -1.368,-0.086 -1.539,0.172 -0.813,1.226 -1.672,1.218 -1.961,1.464 0.332,-0.281 -1.336,-1.636 0.738,-2.375 0.195,-0.07 0.269,-0.523 0.023,-0.636 -0.406,-0.188 -0.738,0.09 -1.14,0.324 -0.461,0.273 -0.567,-0.719 -1.285,-0.356 -0.153,-2.132 1.75,-2.308 2.878,-0.984 0.079,0.098 0.395,-0.02 0.266,-0.133 l -0.266,-0.465" /><path
                     inkscape:connector-curvature="0"
                     id="path154"
                     style="fill:#211e1e;fill-opacity:1;fill-rule:nonzero;stroke:none"
                     d="M 71.332,58.215 C 71.043,72.203 70.754,85.648 66.648,98.637 L 37.633,75.602 8.496,98.703 C 4.367,85.691 4.078,72.215 3.789,58.195 3.762,56.867 3.73,55.531 3.699,54.191 h 67.723 c -0.031,1.348 -0.059,2.688 -0.09,4.024 z m -12.625,57.25 c -4.758,7.308 -12.062,13.422 -21.129,17.691 -9.082,-4.258 -16.394,-10.371 -21.168,-17.691 -0.797,-1.223 -1.539,-2.457 -2.238,-3.695 L 37.629,93.18 60.98,111.715 c -0.707,1.258 -1.46,2.504 -2.273,3.75 z M 9.91,102.73 37.629,80.758 65.23,102.676 c -0.691,1.808 -1.468,3.605 -2.339,5.398 L 37.633,88.016 12.258,108.133 c -0.871,-1.793 -1.649,-3.59 -2.348,-5.403 z m -7.586,-49.878 0.02,0.687 c 0.039,1.566 0.07,3.129 0.101,4.684 0.426,20.328 0.825,39.531 12.844,57.972 4.953,7.61 12.566,13.938 22.008,18.313 l 0.281,0.133 0.281,-0.133 c 9.426,-4.387 17.028,-10.711 21.977,-18.313 12.012,-18.437 12.414,-37.629 12.836,-57.949 0.039,-1.57 0.066,-3.137 0.105,-4.707 l 0.02,-0.687 H 2.324" /><path
                     inkscape:connector-curvature="0"
                     id="path156"
                     style="fill:#211e1e;fill-opacity:1;fill-rule:nonzero;stroke:none"
                     d="m 388.309,53.148 h 3.375 v 66.348 h -3.375 z" /><path
                     inkscape:connector-curvature="0"
                     id="path158"
                     style="fill:#211e1e;fill-opacity:1;fill-rule:nonzero;stroke:none"
                     d="m 414.547,65.961 h 11.726 v 3.082 h -8.339 v 3.277 h 7.347 v 3.078 h -7.347 v 5.965 h -3.387 V 65.961" /><path
                     inkscape:connector-curvature="0"
                     id="path160"
                     style="fill:#211e1e;fill-opacity:1;fill-rule:nonzero;stroke:none"
                     d="m 436.062,74.918 -2.046,-4.996 -2.047,4.996 z m -3.566,-9.066 h 3.125 l 6.602,15.511 h -3.543 l -1.41,-3.453 h -6.512 l -1.406,3.453 h -3.457 l 6.601,-15.511" /><path
                     inkscape:connector-curvature="0"
                     id="path162"
                     style="fill:#211e1e;fill-opacity:1;fill-rule:nonzero;stroke:none"
                     d="m 442.484,73.707 v -0.043 c 0,-4.379 3.301,-7.969 8.032,-7.969 2.906,0 4.64,0.969 6.074,2.379 l -2.156,2.485 c -1.188,-1.079 -2.399,-1.739 -3.938,-1.739 -2.598,0 -4.469,2.157 -4.469,4.797 v 0.047 c 0,2.641 1.825,4.84 4.469,4.84 1.758,0 2.836,-0.703 4.047,-1.805 l 2.156,2.18 c -1.586,1.691 -3.344,2.75 -6.316,2.75 -4.531,0 -7.899,-3.5 -7.899,-7.922" /><path
                     inkscape:connector-curvature="0"
                     id="path164"
                     style="fill:#211e1e;fill-opacity:1;fill-rule:nonzero;stroke:none"
                     d="m 459.16,74.762 v -8.801 h 3.391 v 8.715 c 0,2.508 1.254,3.804 3.32,3.804 2.067,0 3.32,-1.253 3.32,-3.695 v -8.824 h 3.391 v 8.691 c 0,4.664 -2.617,6.953 -6.754,6.953 -4.137,0 -6.668,-2.308 -6.668,-6.843" /><path
                     inkscape:connector-curvature="0"
                     id="path166"
                     style="fill:#211e1e;fill-opacity:1;fill-rule:nonzero;stroke:none"
                     d="m 476.035,65.961 h 3.387 v 12.324 h 7.68 v 3.078 H 476.035 V 65.961" /><path
                     inkscape:connector-curvature="0"
                     id="path168"
                     style="fill:#211e1e;fill-opacity:1;fill-rule:nonzero;stroke:none"
                     d="m 491.039,69.086 h -4.687 v -3.125 h 12.761 v 3.125 h -4.687 v 12.277 h -3.387 V 69.086" /><path
                     inkscape:connector-curvature="0"
                     id="path170"
                     style="fill:#211e1e;fill-opacity:1;fill-rule:nonzero;stroke:none"
                     d="m 506.043,75.289 -5.918,-9.328 h 3.961 l 3.672,6.184 3.742,-6.184 h 3.848 l -5.918,9.262 v 6.14 h -3.387 v -6.074" /><path
                     inkscape:connector-curvature="0"
                     id="path172"
                     style="fill:#211e1e;fill-opacity:1;fill-rule:nonzero;stroke:none"
                     d="m 536.207,73.707 v -0.043 c 0,-2.644 -1.937,-4.844 -4.668,-4.844 -2.727,0 -4.617,2.157 -4.617,4.797 v 0.047 c 0,2.641 1.933,4.84 4.664,4.84 2.726,0 4.621,-2.156 4.621,-4.797 z m -12.828,0 v -0.043 c 0,-4.379 3.453,-7.969 8.207,-7.969 4.75,0 8.16,3.543 8.16,7.922 v 0.047 c 0,4.379 -3.453,7.965 -8.207,7.965 -4.75,0 -8.16,-3.543 -8.16,-7.922" /><path
                     inkscape:connector-curvature="0"
                     id="path174"
                     style="fill:#211e1e;fill-opacity:1;fill-rule:nonzero;stroke:none"
                     d="m 542.762,65.961 h 11.726 v 3.082 h -8.34 v 3.277 h 7.348 v 3.078 h -7.348 v 5.965 h -3.386 V 65.961" /><path
                     inkscape:connector-curvature="0"
                     id="path176"
                     style="fill:#211e1e;fill-opacity:1;fill-rule:nonzero;stroke:none"
                     d="m 414.547,91.359 h 11.617 v 3.016 H 417.91 V 97.5 h 7.262 v 3.016 h -7.262 v 3.234 h 8.363 v 3.012 H 414.547 V 91.359" /><path
                     inkscape:connector-curvature="0"
                     id="path178"
                     style="fill:#211e1e;fill-opacity:1;fill-rule:nonzero;stroke:none"
                     d="m 429.285,91.359 h 3.125 l 7.215,9.485 v -9.485 h 3.348 v 15.403 h -2.883 l -7.461,-9.789 v 9.789 h -3.344 V 91.359" /><path
                     inkscape:connector-curvature="0"
                     id="path180"
                     style="fill:#211e1e;fill-opacity:1;fill-rule:nonzero;stroke:none"
                     d="m 445.98,99.105 v -0.043 c 0,-4.378 3.415,-7.964 8.079,-7.964 2.773,0 4.445,0.75 6.05,2.113 l -2.136,2.574 c -1.188,-0.992 -2.243,-1.562 -4.028,-1.562 -2.461,0 -4.422,2.175 -4.422,4.797 v 0.042 c 0,2.817 1.938,4.887 4.665,4.887 1.234,0 2.335,-0.308 3.191,-0.926 v -2.199 h -3.41 v -2.929 h 6.691 v 6.691 c -1.586,1.344 -3.765,2.441 -6.578,2.441 -4.801,0 -8.102,-3.367 -8.102,-7.922" /><path
                     inkscape:connector-curvature="0"
                     id="path182"
                     style="fill:#211e1e;fill-opacity:1;fill-rule:nonzero;stroke:none"
                     d="m 464.066,91.359 h 3.391 v 15.402 h -3.391 z" /><path
                     inkscape:connector-curvature="0"
                     id="path184"
                     style="fill:#211e1e;fill-opacity:1;fill-rule:nonzero;stroke:none"
                     d="m 471.305,91.359 h 3.125 l 7.215,9.485 v -9.485 h 3.343 v 15.403 h -2.883 l -7.457,-9.789 v 9.789 h -3.343 V 91.359" /><path
                     inkscape:connector-curvature="0"
                     id="path186"
                     style="fill:#211e1e;fill-opacity:1;fill-rule:nonzero;stroke:none"
                     d="m 488.684,91.359 h 11.617 v 3.016 h -8.25 V 97.5 h 7.261 v 3.016 h -7.261 v 3.234 h 8.363 v 3.012 h -11.73 V 91.359" /><path
                     inkscape:connector-curvature="0"
                     id="path188"
                     style="fill:#211e1e;fill-opacity:1;fill-rule:nonzero;stroke:none"
                     d="m 503.426,91.359 h 11.617 v 3.016 h -8.25 V 97.5 h 7.258 v 3.016 h -7.258 v 3.234 h 8.359 v 3.012 H 503.426 V 91.359" /><path
                     inkscape:connector-curvature="0"
                     id="path190"
                     style="fill:#211e1e;fill-opacity:1;fill-rule:nonzero;stroke:none"
                     d="m 524.984,98.844 c 1.653,0 2.598,-0.883 2.598,-2.18 v -0.043 c 0,-1.453 -1.012,-2.199 -2.66,-2.199 h -3.367 v 4.422 z m -6.82,-7.485 h 7.043 c 1.957,0 3.477,0.551 4.488,1.567 0.86,0.855 1.321,2.066 1.321,3.519 v 0.043 c 0,2.485 -1.344,4.051 -3.301,4.774 l 3.762,5.5 h -3.961 l -3.301,-4.926 h -2.66 v 4.926 h -3.391 V 91.359" /><path
                     inkscape:connector-curvature="0"
                     id="path192"
                     style="fill:#211e1e;fill-opacity:1;fill-rule:nonzero;stroke:none"
                     d="m 534.223,91.359 h 3.391 v 15.402 h -3.391 z" /><path
                     inkscape:connector-curvature="0"
                     id="path194"
                     style="fill:#211e1e;fill-opacity:1;fill-rule:nonzero;stroke:none"
                     d="m 541.465,91.359 h 3.121 l 7.219,9.485 v -9.485 h 3.343 v 15.403 h -2.882 l -7.461,-9.789 v 9.789 h -3.34 V 91.359" /><path
                     inkscape:connector-curvature="0"
                     id="path196"
                     style="fill:#211e1e;fill-opacity:1;fill-rule:nonzero;stroke:none"
                     d="m 558.16,99.105 v -0.043 c 0,-4.378 3.41,-7.964 8.074,-7.964 2.774,0 4.446,0.75 6.051,2.113 l -2.133,2.574 c -1.187,-0.992 -2.246,-1.562 -4.027,-1.562 -2.465,0 -4.422,2.175 -4.422,4.797 v 0.042 c 0,2.817 1.938,4.887 4.664,4.887 1.231,0 2.332,-0.308 3.192,-0.926 v -2.199 h -3.411 v -2.929 h 6.688 v 6.691 c -1.582,1.344 -3.762,2.441 -6.578,2.441 -4.797,0 -8.098,-3.367 -8.098,-7.922" /></g></g></g></g></g></g><g
         transform="translate(1.9999999e-5)"
         id="g198" /><g
         transform="translate(0,-10.5)"
         id="g977"><rect
           style="color:#000000;overflow:visible;fill:#fdd433;fill-opacity:1;stroke:none;stroke-width:2.83465"
           id="rect954"
           width="108.00536"
           height="12.595058"
           x="100.15281"
           y="-6.6449165"
           transform="scale(1,-1)" /><text
           id="text44-3"
           style="font-style:normal;font-variant:normal;font-weight:bold;font-stretch:normal;font-size:10.9091px;font-family:'Source Code Pro';-inkscape-font-specification:'Source Code Pro Bold';text-align:center;letter-spacing:-0.1875px;writing-mode:lr-tb;text-anchor:middle;fill:#000000;fill-opacity:1;fill-rule:nonzero;stroke:none;stroke-width:0.999998"
           x="154.23544"
           y="3.3077598"
           transform="scale(1,-1)"><tspan
             id="tspan42-7"
             sodipodi:role="line"
             y="3.3077598"
             x="154.14169"
             style="font-style:normal;font-variant:normal;font-weight:bold;font-stretch:normal;font-family:'Source Code Pro';-inkscape-font-specification:'Source Code Pro Bold';letter-spacing:-0.1875px;stroke-width:0.999998">PLEASE STAND BY</tspan></text></g><text
         transform="scale(1,-1)"
         id="text999"
         y="178.10172"
         x="354.57419"
         style="font-style:italic;font-variant:normal;font-weight:normal;font-stretch:normal;font-size:7px;line-height:10.9375px;font-family:Gentium;-inkscape-font-specification:'Gentium Italic';font-variant-ligatures:normal;font-variant-position:normal;font-variant-caps:normal;font-variant-numeric:normal;font-variant-alternates:normal;font-feature-settings:normal;text-indent:0;text-align:end;text-decoration:none;text-decoration-line:none;text-decoration-style:solid;text-decoration-color:#000000;letter-spacing:0px;word-spacing:0px;text-transform:none;writing-mode:lr-tb;direction:ltr;text-orientation:mixed;dominant-baseline:auto;baseline-shift:baseline;text-anchor:end;white-space:normal;shape-padding:0;opacity:1;vector-effect:none;fill:#555753;fill-opacity:1;stroke:none;stroke-width:0.75px;stroke-linecap:butt;stroke-linejoin:miter;stroke-miterlimit:4;stroke-dasharray:none;stroke-dashoffset:0;stroke-opacity:1"
         xml:space="preserve"><tspan
           id="tspan1003"
           style="font-style:italic;font-variant:normal;font-weight:normal;font-stretch:normal;font-family:Gentium;-inkscape-font-specification:'Gentium Italic';text-align:end;text-anchor:end;fill:#555753;stroke-width:0.75px"
           y="178.10172"
           x="354.57419"
           sodipodi:role="line">Music: Clean Soul by Kevin MacLeod | Link: https://incompetech.filmmusic.io/song/3514-clean-soul | License: http://creativecommons.org/licenses/by/4.0/</tspan></text></g></g></svg>
